<svg width="18" height="18" viewBox="0 0 18 18" fill="none" xmlns="http://www.w3.org/2000/svg">
<path d="M10.1026 5.64749C10.2081 5.75283 10.3511 5.812 10.5001 5.812C10.6492 5.812 10.7921 5.75283 10.8976 5.64749L11.4376 5.10749V12.75C11.4376 12.8992 11.4969 13.0423 11.6024 13.1477C11.7079 13.2532 11.8509 13.3125 12.0001 13.3125C12.1493 13.3125 12.2924 13.2532 12.3979 13.1477C12.5034 13.0423 12.5626 12.8992 12.5626 12.75V5.10749L13.1026 5.64749C13.1541 5.70276 13.2162 5.74709 13.2852 5.77783C13.3542 5.80857 13.4287 5.8251 13.5042 5.82644C13.5798 5.82777 13.6548 5.81388 13.7248 5.78559C13.7949 5.75729 13.8585 5.71519 13.9119 5.66177C13.9653 5.60836 14.0074 5.54473 14.0357 5.47469C14.064 5.40465 14.0779 5.32963 14.0766 5.2541C14.0752 5.17857 14.0587 5.10409 14.028 5.03509C13.9972 4.96609 13.9529 4.90399 13.8976 4.85249L12.3976 3.35249C12.2921 3.24716 12.1492 3.18799 12.0001 3.18799C11.8511 3.18799 11.7081 3.24716 11.6026 3.35249L10.1026 4.85249C9.99728 4.95796 9.93811 5.10093 9.93811 5.24999C9.93811 5.39906 9.99728 5.54202 10.1026 5.64749ZM6.56262 12.8925L7.10262 12.3525C7.15411 12.2972 7.21621 12.2529 7.28521 12.2222C7.35421 12.1914 7.4287 12.1749 7.50422 12.1736C7.57975 12.1722 7.65477 12.1861 7.72481 12.2144C7.79485 12.2427 7.85848 12.2848 7.91189 12.3382C7.96531 12.3916 8.00742 12.4553 8.03571 12.5253C8.064 12.5953 8.07789 12.6704 8.07656 12.7459C8.07523 12.8214 8.05869 12.8959 8.02795 12.9649C7.99721 13.0339 7.95288 13.096 7.89761 13.1475L6.39761 14.6475C6.29215 14.7528 6.14918 14.812 6.00012 14.812C5.85105 14.812 5.70808 14.7528 5.60261 14.6475L4.10261 13.1475C4.04735 13.096 4.00302 13.0339 3.97228 12.9649C3.94154 12.8959 3.925 12.8214 3.92367 12.7459C3.92234 12.6704 3.93623 12.5953 3.96452 12.5253C3.99281 12.4553 4.03492 12.3916 4.08834 12.3382C4.14175 12.2848 4.20538 12.2427 4.27542 12.2144C4.34546 12.1861 4.42048 12.1722 4.49601 12.1736C4.57153 12.1749 4.64602 12.1914 4.71502 12.2222C4.78402 12.2529 4.84612 12.2972 4.89762 12.3525L5.43762 12.8925V5.24999C5.43762 5.10081 5.49688 4.95774 5.60237 4.85225C5.70786 4.74676 5.85093 4.68749 6.00012 4.68749C6.1493 4.68749 6.29237 4.74676 6.39786 4.85225C6.50335 4.95774 6.56262 5.10081 6.56262 5.24999V12.8925Z" fill="#19582E"/>
</svg>
