<svg width="154" height="28" viewBox="0 0 154 28" fill="none" xmlns="http://www.w3.org/2000/svg">
<g clip-path="url(#clip0_193_38)">
<path d="M145.981 3.4251C148.47 3.4251 150.492 5.4033 150.492 7.83028C150.492 10.2573 148.466 12.2355 145.981 12.2355C143.495 12.2355 141.469 10.2573 141.469 7.83028C141.469 5.4033 143.495 3.4251 145.981 3.4251ZM145.981 2.05005C142.712 2.05005 140.061 4.63859 140.061 7.83028C140.061 11.022 142.712 13.6105 145.981 13.6105C149.249 13.6105 151.9 11.022 151.9 7.83028C151.9 4.63859 149.249 2.05005 145.981 2.05005Z" fill="#7FBD42"/>
<path d="M145.98 1.48634C149.562 1.48634 152.478 4.33338 152.478 7.83024C152.478 11.3271 149.562 14.1741 145.98 14.1741C142.399 14.1741 139.483 11.3271 139.483 7.83024C139.483 4.33338 142.399 1.48634 145.98 1.48634ZM145.98 0C141.553 0 137.961 3.50404 137.961 7.83024C137.961 12.1564 141.55 15.6605 145.98 15.6605C150.411 15.6605 154 12.1564 154 7.83024C154 3.50404 150.411 0 145.98 0Z" fill="#7FBD42"/>
<path d="M7.89819 7.55737C5.60007 7.55737 3.86085 8.1713 2.4305 9.4889C1.32372 10.5121 0 12.3467 0 15.2691C0 17.5345 0.794231 19.3584 2.42682 20.8519C3.43064 21.7818 5.17721 22.8911 7.7842 22.8911C8.62991 22.8911 10.2993 22.7475 11.9502 21.7854L12.0127 21.7494V18.7444L11.7921 18.9491C11.1303 19.563 9.73301 20.5934 7.85039 20.5934C4.82054 20.5934 2.53713 18.3064 2.53713 15.2727C2.53713 12.0882 4.71391 9.86587 7.82833 9.86587C9.27707 9.86587 10.6118 10.3972 11.7958 11.4456L12.0127 11.6394V8.66675L11.9539 8.62725C10.7846 7.89844 9.49768 7.56096 7.89451 7.56096L7.89819 7.55737Z" fill="#020000"/>
<path d="M23.9226 17.9043C23.9226 15.0717 21.709 12.9391 18.7711 12.9391C15.8332 12.9391 13.616 15.0753 13.616 17.9043C13.616 20.7334 15.8332 22.8911 18.7711 22.8911C21.709 22.8911 23.9226 20.7478 23.9226 17.9043ZM18.7711 15.1112C19.9956 15.1112 21.4296 15.8472 21.4296 17.9259C21.4296 19.6492 20.4111 20.7191 18.7711 20.7191C17.1312 20.7191 16.109 19.6492 16.109 17.9259C16.109 15.8472 17.543 15.1112 18.7711 15.1112Z" fill="#020000"/>
<path d="M30.4418 15.84C30.5595 16.1165 30.622 16.6514 30.622 17.4233V22.6076H32.9422V17.75C32.9422 17.0392 32.9716 16.2385 33.3172 15.7287C33.5856 15.341 34.0011 15.1076 34.4277 15.1076C35.0822 15.1076 35.3616 15.499 35.483 15.8364C35.6006 16.1129 35.6632 16.6478 35.6632 17.4197V22.604H37.9833V16.8094C37.9833 15.8113 37.8216 15.0143 37.5053 14.4398C36.9869 13.4956 36.0014 12.9355 34.8689 12.9355C34.2328 12.9355 33.0745 13.1007 32.2509 14.1778C31.7324 13.3843 30.9051 12.9355 29.9528 12.9355C29.1512 12.9355 28.4599 13.2299 27.8973 13.808V13.1761H25.5771V22.604H27.8973V17.7464C27.8973 17.0356 27.9268 16.2349 28.2724 15.7251C28.5408 15.3374 28.9563 15.104 29.3828 15.104C30.0373 15.104 30.3168 15.4954 30.4381 15.8328L30.4418 15.84Z" fill="#020000"/>
<path d="M111.027 22.6075H113.476V7.026L111.027 7.85175V22.6075Z" fill="#020000"/>
<path d="M49.7866 17.8361C49.7866 14.9963 47.8047 12.9391 45.08 12.9391C44.3336 12.9391 43.293 13.1258 42.4215 13.9802V12.9391H39.9727V28L42.4215 27.1742V21.7459C43.4989 22.8301 44.83 22.8875 45.1057 22.8875C47.4075 22.8875 49.7902 20.9955 49.7902 17.8325L49.7866 17.8361ZM44.8116 15.1112C46.2493 15.1112 47.2899 16.2959 47.2899 17.9259C47.2899 19.5558 46.2456 20.7191 44.8116 20.7191C43.5541 20.7191 42.2855 19.861 42.2855 17.9474C42.2855 15.8543 43.646 15.1112 44.8116 15.1112Z" fill="#020000"/>
<path d="M54.1621 7.0188L51.7133 7.84455V22.6075H54.1621V7.0188Z" fill="#020000"/>
<path d="M69.9438 9.0365L67.4949 9.85866V13.1796H66.3698V15.3948H67.4949V22.6075H69.9438V15.3948H71.6168V13.1796H69.9438V9.0365Z" fill="#020000"/>
<path d="M60.9168 12.9391C59.5894 12.9391 58.4569 13.3699 57.5523 14.2172C56.5412 15.1901 55.9602 16.5975 55.9602 18.0803C55.9602 19.563 56.486 20.7837 57.4384 21.6812C58.3319 22.5213 59.3761 22.8947 60.8249 22.8947C61.9647 22.8947 63.009 22.6398 63.7701 22.1767C64.4173 21.7961 65.035 21.1678 65.4652 20.457L65.5351 20.3421L63.4024 19.2184L63.3399 19.3225C63.1745 19.5953 62.8877 19.9867 62.4722 20.2882C62.0346 20.597 61.6044 20.7226 60.9903 20.7226C60.4976 20.7226 59.8652 20.6616 59.343 20.1698C58.9349 19.7892 58.6371 19.1609 58.5598 18.5362H65.5572V18.1485C65.5572 16.3965 65.0975 15.1004 64.1489 14.1777C63.5716 13.614 62.542 12.9427 60.9242 12.9427L60.9168 12.9391ZM60.869 15.0214C61.4536 15.0214 61.939 15.1866 62.3141 15.5133C62.6119 15.7753 62.8288 16.1308 62.9355 16.5329H58.7437C58.8687 16.1559 59.0893 15.8077 59.3577 15.5779C59.6298 15.3266 60.1115 15.025 60.869 15.025V15.0214Z" fill="#020000"/>
<path d="M76.6838 12.9391C75.3564 12.9391 74.2238 13.3699 73.3193 14.2172C72.3081 15.1901 71.7272 16.5975 71.7272 18.0803C71.7272 19.563 72.253 20.7837 73.2053 21.6812C74.0988 22.5213 75.1431 22.8947 76.5918 22.8947C77.7317 22.8947 78.776 22.6398 79.5371 22.1767C80.1843 21.7961 80.802 21.1678 81.2322 20.457L81.3021 20.3421L79.1694 19.2184L79.1069 19.3225C78.9414 19.5953 78.6546 19.9867 78.2391 20.2882C77.8016 20.597 77.3714 20.7226 76.7573 20.7226C76.2646 20.7226 75.6321 20.6616 75.11 20.1698C74.7019 19.7892 74.404 19.1609 74.3268 18.5362H81.3241V18.1485C81.3241 16.3965 80.8645 15.1004 79.9158 14.1777C79.3386 13.614 78.309 12.9427 76.6911 12.9427L76.6838 12.9391ZM76.636 15.0214C77.2206 15.0214 77.706 15.1866 78.081 15.5133C78.3789 15.7753 78.5958 16.1308 78.7024 16.5329H74.5107C74.6357 16.1559 74.8563 15.8077 75.1247 15.5779C75.3968 15.3266 75.8785 15.025 76.636 15.025V15.0214Z" fill="#020000"/>
<path d="M93.8075 13.711L92.311 13.1222C91.2851 12.7201 90.785 12.1815 90.785 11.4743C90.785 10.4941 91.5572 9.85867 92.7522 9.85867C93.381 9.85867 93.8369 10.0059 94.2745 10.3505C94.565 10.5983 94.7672 10.8711 94.9069 11.2158L94.9621 11.3522L97.0285 10.171L96.9734 10.0633C96.6831 9.49613 96.2865 8.9871 95.8041 8.56261C95.0025 7.89124 93.9693 7.55017 92.7301 7.55017C89.7885 7.55017 88.2479 9.54273 88.2479 11.5138C88.2479 13.1904 89.2958 14.4685 91.3623 15.3122L92.7926 15.901C93.8626 16.3282 94.8554 16.9098 94.8554 18.2669C94.8554 19.624 93.8774 20.579 92.5316 20.579C91.7557 20.579 91.1343 20.3026 90.6931 19.7569C90.318 19.2758 90.0937 18.6116 90.0937 17.9833V17.8253L87.5676 18.3639L87.5787 18.4752C87.6779 19.6025 88.0971 20.5539 88.8619 21.3832C89.7996 22.4064 90.9468 22.8839 92.4617 22.8839C95.3629 22.8839 97.3926 20.9129 97.3926 18.0946C97.3926 16.0697 96.2527 14.6767 93.8075 13.7038V13.711Z" fill="#020000"/>
<path d="M104.081 12.9391C101.143 12.9391 98.9296 15.0753 98.9296 17.9043C98.9296 20.7334 101.143 22.8911 104.081 22.8911C107.019 22.8911 109.236 20.7478 109.236 17.9043C109.236 15.0609 107.019 12.9391 104.081 12.9391ZM104.081 20.7191C102.441 20.7191 101.423 19.6492 101.423 17.9259C101.423 15.8472 102.853 15.1112 104.081 15.1112C105.309 15.1112 106.743 15.8472 106.743 17.9259C106.743 19.6492 105.725 20.7191 104.081 20.7191Z" fill="#020000"/>
<path d="M123.021 14.0377C122.128 13.1365 121.021 12.9391 120.219 12.9391C117.355 12.9391 115.278 15.0178 115.278 17.8828C115.278 20.3708 116.965 22.8911 120.194 22.8911C120.981 22.8911 122.084 22.7008 123.021 21.8356V22.6075H125.581V13.1796H123.021V14.0377ZM120.499 20.7191C118.984 20.7191 117.885 19.5451 117.885 17.9259C117.885 16.3067 118.984 15.1112 120.499 15.1112C121.727 15.1112 123.165 15.8543 123.165 17.9474C123.165 19.861 121.826 20.7191 120.499 20.7191Z" fill="#020000"/>
<path d="M132.262 12.9391C131.651 12.9391 131.214 13.0361 130.798 13.2587C130.555 13.3879 130.276 13.5961 130.033 13.8187V13.1761H127.485V22.604H130.033V17.7249C130.033 17.1217 130.033 16.296 130.625 15.7C131.019 15.3159 131.442 15.2369 131.956 15.2369C132.148 15.2369 133.012 15.4702 133.523 15.7718L133.648 15.8472L134.696 13.6715L134.589 13.6141C133.935 13.2515 132.846 12.9355 132.262 12.9355V12.9391Z" fill="#020000"/>
</g>
<defs>
<clipPath id="clip0_193_38">
<rect width="154" height="28" fill="white"/>
</clipPath>
</defs>
</svg>
