<svg width="38" height="38" viewBox="0 0 38 38" fill="none" xmlns="http://www.w3.org/2000/svg">
<path fill-rule="evenodd" clip-rule="evenodd" d="M32.8999 0.041184C32.7843 0.103948 29.2455 3.64207 29.1855 3.75483C29.1411 3.83842 29.1318 4.2114 29.1297 6.00038L29.1272 8.14571L28.4622 8.78972L27.7972 9.43372L27.3604 9.05532C24.733 6.77912 21.6372 5.43691 18.1447 5.05985C17.7437 5.01653 17.2488 4.99783 16.5115 4.99805C15.4081 4.99842 14.7542 5.04686 13.8388 5.19603C8.91234 5.99901 4.59863 9.01134 2.1165 13.3819C1.83951 13.8696 1.32569 14.9443 1.13297 15.4391C0.604489 16.7957 0.255933 18.2062 0.0827314 19.6889C0.00500227 20.3543 -0.0260671 21.9341 0.0250099 22.6252C0.156043 24.398 0.505602 25.9487 1.13274 27.5391C3.21513 32.8197 7.88664 36.6889 13.4305 37.7249C14.6218 37.9475 15.5924 38.0232 16.8827 37.994C18.5918 37.9554 19.9972 37.7228 21.5537 37.2208C25.1743 36.0532 28.2312 33.7184 30.3419 30.5084C31.7813 28.3192 32.6545 25.8395 32.9427 23.1222C33.0268 22.3292 33.0266 20.6367 32.9422 19.8559C32.5651 16.3638 31.2228 13.2683 28.9464 10.6412L28.5679 10.2044L29.212 9.53947L29.8561 8.87453L32.0022 8.872C33.4897 8.87026 34.1732 8.8569 34.2294 8.8285C34.3447 8.77023 37.8863 5.23433 37.9506 5.1133C38.0596 4.90823 37.9805 4.59303 37.7885 4.46721C37.7348 4.43202 37.1072 4.24748 36.3938 4.05711C35.6805 3.8667 35.0896 3.70372 35.0808 3.69493C35.072 3.68609 35.2155 3.52853 35.3998 3.34477C35.8035 2.94232 35.8627 2.80966 35.7594 2.5392C35.6574 2.27214 35.3601 2.13084 35.1133 2.23206C35.0471 2.25915 34.8443 2.43089 34.6625 2.61372C34.4807 2.79656 34.3228 2.93697 34.3116 2.9258C34.3004 2.91459 34.1355 2.32184 33.9451 1.60857C33.7547 0.895271 33.5701 0.267743 33.5349 0.214035C33.4155 0.0318677 33.0836 -0.0584737 32.8999 0.041184ZM31.4986 2.88427L30.1716 4.21174L30.1761 4.97244C30.1786 5.39082 30.1911 6.02257 30.204 6.37629L30.2273 7.01949L31.8364 5.41954L33.4455 3.81964L33.1626 2.75354C33.007 2.16718 32.8676 1.65805 32.8527 1.62212C32.8309 1.56953 32.5671 1.8155 31.4986 2.88427ZM32.5808 6.1736L30.9625 7.78156L31.8198 7.8058C32.2914 7.81916 32.9278 7.83007 33.2342 7.83014L33.7912 7.83022L35.1241 6.49707L36.4569 5.16396L36.3117 5.12514C36.2318 5.10379 35.7266 4.9688 35.189 4.82516C34.6514 4.68152 34.2088 4.56434 34.2053 4.56483C34.2019 4.56527 33.4708 5.28926 32.5808 6.1736ZM15.0039 6.10546C13.5889 6.24583 12.139 6.59599 10.8321 7.11294C7.82305 8.30327 5.33335 10.3384 3.54231 13.0718C2.17128 15.1643 1.38256 17.4282 1.10115 20.0786C1.04139 20.6416 1.0421 22.3512 1.10234 22.9366C1.30847 24.9399 1.794 26.6295 2.67021 28.3927C4.18489 31.4407 6.61164 33.8549 9.68139 35.3675C12.703 36.8565 16.0249 37.3077 19.3934 36.6865C22.6065 36.094 25.6951 34.3735 27.8918 31.9525C30.2108 29.3967 31.5736 26.3317 31.8984 22.9411C31.9704 22.1897 31.969 20.8139 31.8954 20.0392C31.5898 16.8225 30.341 13.8957 28.2069 11.3948L27.8207 10.9422L26.5876 12.1747L25.3545 13.4073L25.6467 13.7548C26.8502 15.186 27.6764 16.7966 28.1262 18.5881C29.0388 22.2223 28.196 26.0671 25.8429 29.0052C25.4281 29.5229 24.5522 30.4024 24.0473 30.8081C22.3012 32.2108 20.2848 33.0717 17.9963 33.3915C17.3436 33.4827 15.6472 33.4817 14.9895 33.3896C12.441 33.033 10.2299 32.0035 8.41931 30.3303C7.64351 29.6135 7.04818 28.9185 6.50511 28.0958C5.48821 26.5554 4.87603 24.9129 4.60977 23.0108C4.51775 22.3533 4.51667 20.657 4.60787 20.0044C4.81021 18.557 5.17087 17.3794 5.793 16.1345C6.37523 14.9696 7.1027 13.9653 8.04533 13.0251C9.40952 11.6645 10.9173 10.732 12.7252 10.1307C16.7026 8.8079 21.0213 9.64329 24.2537 12.3607L24.6084 12.6589L25.8386 11.4266L27.0688 10.1943L26.922 10.0661C26.1728 9.41168 25.625 8.98896 24.9748 8.56342C22.8573 7.17768 20.4835 6.34612 17.9615 6.10657C17.2233 6.03649 15.7051 6.0359 15.0039 6.10546ZM15.2789 10.6331C12.426 10.9762 9.90236 12.3453 8.07391 14.542C5.33795 17.8289 4.79871 22.5293 6.71785 26.3628C7.6206 28.166 8.99708 29.688 10.6836 30.7477C13.5059 32.5211 16.9415 32.9063 20.1285 31.8067C21.8153 31.2248 23.4332 30.1455 24.6313 28.8032C26.1791 27.0689 27.1121 24.9703 27.3728 22.6366C27.4539 21.9105 27.4265 20.6085 27.3147 19.878C27.038 18.0708 26.3095 16.3434 25.2191 14.9088C25.0451 14.6799 24.8366 14.4175 24.7558 14.3256L24.6088 14.1586L23.5614 15.1978C22.9854 15.7694 22.4318 16.3235 22.3312 16.4291L22.1482 16.6212L22.3246 16.8374C22.8462 17.4771 23.3094 18.3324 23.5808 19.1573C24.4664 21.8482 23.7645 24.788 21.7605 26.7815C20.6542 27.882 19.3084 28.5729 17.7179 28.857C17.2695 28.937 16.2561 28.9683 15.7593 28.9174C14.3803 28.7761 13.0869 28.2652 11.9747 27.4226C11.5354 27.0898 10.8564 26.3985 10.5137 25.9352C9.82634 25.0059 9.37355 23.9601 9.15392 22.7947C9.04437 22.2134 9.03513 20.8507 9.13703 20.3013C9.43855 18.6756 10.1035 17.3711 11.1955 16.263C13.1882 14.241 16.1383 13.5303 18.8435 14.4204C19.6684 14.6918 20.5238 15.1549 21.1634 15.6764L21.3795 15.8526L21.5717 15.6762C21.9134 15.3626 23.8241 13.4339 23.8241 13.4026C23.8241 13.3582 23.3057 12.9292 22.8775 12.6192C21.5135 11.6317 19.8375 10.9504 18.1227 10.6864C17.4495 10.5828 15.9335 10.5543 15.2789 10.6331ZM15.5586 15.161C12.7433 15.6014 10.6095 17.743 10.1597 20.5797C10.0821 21.069 10.1 22.0982 10.1951 22.6115C10.8782 26.2998 14.4579 28.6075 18.0887 27.7001C20.2665 27.1559 22.0282 25.4479 22.6538 23.274C22.8518 22.586 22.9078 22.1072 22.8841 21.3035C22.8609 20.5175 22.7959 20.1383 22.5676 19.4555C22.3392 18.7723 21.8894 17.9455 21.4974 17.4883L21.3927 17.3662L20.1561 18.6044L18.9195 19.8426L19.0497 20.0627C19.1213 20.1838 19.2218 20.4087 19.2731 20.5626C19.8863 22.4037 18.5945 24.3088 16.6639 24.4107C15.8135 24.4555 15.0852 24.1793 14.4561 23.5734C13.151 22.3161 13.3397 20.1173 14.8411 19.0895C15.4253 18.6895 16.1393 18.5107 16.821 18.5935C17.2245 18.6426 17.6684 18.7843 17.9503 18.954L18.1594 19.08L19.3971 17.8441L20.6347 16.6083L20.5126 16.5019C20.2729 16.2931 19.6665 15.9172 19.2524 15.7206C18.6188 15.4199 18.1103 15.2645 17.4209 15.1612C16.9719 15.0938 15.9886 15.0937 15.5586 15.161ZM16.0174 19.689C15.2936 19.8879 14.7543 20.504 14.6504 21.2505C14.6005 21.6084 14.6651 22.0048 14.828 22.3403C14.9595 22.6114 15.389 23.0409 15.6601 23.1724C16.7363 23.6946 18.0074 23.117 18.3135 21.9667C18.3905 21.6774 18.3819 21.2459 18.2934 20.9641C18.1678 20.5641 18.2186 20.5456 17.5054 21.252C17.1527 21.6014 16.8228 21.9145 16.7723 21.9479C16.5585 22.0895 16.1691 21.9842 16.0493 21.7524C15.9742 21.6073 15.9759 21.3441 16.0525 21.2283C16.086 21.1778 16.3992 20.8479 16.7485 20.4952C17.455 19.7821 17.4365 19.8329 17.0365 19.7073C16.7613 19.6209 16.2955 19.6125 16.0174 19.689Z" fill="#2A2A2A"/>
</svg>
