<svg width="33" height="33" viewBox="0 0 33 33" fill="none" xmlns="http://www.w3.org/2000/svg">
<path fill-rule="evenodd" clip-rule="evenodd" d="M13.5996 0.231503C10.2032 0.877006 7.35588 2.39098 4.89733 4.85859C2.37205 7.39318 0.899613 10.2359 0.287842 13.7572C-0.0959473 15.9653 -0.0959473 16.9779 0.287842 19.186C0.899613 22.7073 2.37205 25.55 4.89733 28.0846C7.42262 30.6192 10.2549 32.0971 13.7633 32.7111C15.9633 33.0963 16.9721 33.0963 19.1721 32.7111C26.6268 31.4064 32.0348 25.526 32.8548 17.8336L33 16.4716H31.2968H29.5935L29.4812 17.9345C29.2677 20.7169 27.903 23.5411 25.707 25.7449C24.242 27.2155 22.7635 28.1696 20.7382 28.9513C19.5038 29.4277 19.1225 29.4745 16.4677 29.4745C13.8129 29.4745 13.4316 29.4277 12.1972 28.9513C10.1719 28.1696 8.69341 27.2155 7.22842 25.7449C5.75016 24.2614 4.7948 22.7626 4.04934 20.7579C3.37364 18.941 3.1939 15.3862 3.67942 13.4396C4.86718 8.67632 8.64275 4.85576 13.3435 3.6604C14.6766 3.32141 17.9371 3.26208 19.1818 3.55406C19.9821 3.74172 19.9918 3.73688 21.2425 2.49571C21.9336 1.80985 22.499 1.18553 22.499 1.10825C22.499 0.832412 18.7467 0.0886403 16.9703 0.0123663C15.8849 -0.0342455 14.5363 0.0535301 13.5996 0.231503ZM21.8466 11.375L14.862 18.3851L12.395 15.9151C11.0382 14.5565 9.83573 13.4449 9.72295 13.4449C9.61036 13.4449 9.02553 13.9453 8.42361 14.5571L7.32934 15.6693L10.9415 19.299C12.9282 21.2952 14.6455 22.9287 14.7576 22.9287C14.8698 22.9287 18.6235 19.2526 23.0991 14.7595L31.2365 6.59029L30.1416 5.47746C29.5393 4.86545 28.9981 4.36462 28.9387 4.36462C28.8796 4.36462 25.6881 7.5193 21.8466 11.375Z" fill="white"/>
</svg>
