<svg width="49" height="51" viewBox="0 0 49 51" fill="none" xmlns="http://www.w3.org/2000/svg">
<path fill-rule="evenodd" clip-rule="evenodd" d="M37.8408 0.291158C37.609 0.519563 37.5452 0.671566 37.5452 0.996094C37.5452 1.32062 37.609 1.47262 37.8408 1.70103L38.1364 1.99219H40.1916H42.2467L37.2948 6.87066L32.343 11.749L30.3577 9.80913C28.3605 7.85749 28.288 7.80549 27.6349 7.85878C27.447 7.87412 24.9853 10.2389 18.0531 17.0632C10.604 24.3962 8.71217 26.3097 8.66474 26.5586C8.53874 27.2204 9.2448 27.8835 9.91344 27.7313C10.1042 27.6879 12.9436 24.9605 19.0116 18.992L27.8324 10.3157L29.8425 12.2799L31.8524 14.2441H32.3437H32.8349L38.2743 8.89223L43.7139 3.54042V5.21654C43.7139 6.52332 43.7483 6.96439 43.8704 7.2177C44.226 7.9556 45.3254 7.9556 45.681 7.2177C45.8115 6.94666 45.8375 6.39383 45.8375 3.88477C45.8375 0.612299 45.7981 0.349629 45.2717 0.113455C45.0986 0.0356602 43.9357 0 41.5777 0H38.1364L37.8408 0.291158ZM37.4242 14.6789C36.4002 14.9578 35.648 15.7379 35.4278 16.7491C35.3546 17.0853 35.3204 22.2966 35.3204 33.125V49.0078H32.5395H29.7585L29.7563 40.0181C29.7541 31.1931 29.7503 31.0202 29.5483 30.5801C29.2721 29.9783 28.8028 29.5095 28.1911 29.2241C27.6932 28.9919 27.6372 28.9882 24.5451 28.9873L21.4048 28.9863L20.8796 29.2441C20.5907 29.386 20.1974 29.6825 20.0057 29.9032C19.3134 30.6998 19.3426 30.2501 19.3426 40.1105V49.0078H16.5653H13.7881L13.759 44.2017L13.7301 39.3955L13.4467 38.8269C13.1393 38.2105 12.5842 37.7062 11.9781 37.493C11.7032 37.3962 10.8041 37.3614 8.52216 37.3589C5.49688 37.3555 5.42812 37.3599 4.9322 37.5884C4.30926 37.8754 3.81173 38.3572 3.52898 38.9473C3.32076 39.3819 3.31328 39.5417 3.28355 44.2017L3.25291 49.0078H1.94525C0.65408 49.0078 0.633552 49.0114 0.318748 49.2883C0.0532931 49.522 0 49.6416 0 50.0039C0 50.3662 0.0532931 50.4858 0.318748 50.7195L0.637597 51H24.5H48.3624L48.6813 50.7195C48.9467 50.4858 49 50.3662 49 50.0039C49 49.6416 48.9467 49.522 48.6813 49.2883C48.3678 49.0125 48.3415 49.0078 47.1012 49.0078H45.8399L45.8134 32.8462L45.7869 16.6846L45.5467 16.1609C45.2736 15.5659 44.794 15.1082 44.1235 14.8026C43.6937 14.6066 43.4725 14.5914 40.7812 14.5712C38.67 14.5553 37.7721 14.5842 37.4242 14.6789ZM37.6639 16.8653L37.4441 17.0959V33.0518V49.0078H40.579H43.7139V33.0244V17.041L43.4925 16.8379C43.2813 16.644 43.1486 16.6348 40.5776 16.6348C37.8926 16.6348 37.8832 16.6356 37.6639 16.8653ZM5.79177 29.3124C5.46098 29.4743 5.1567 30.0857 5.24144 30.4183C5.32821 30.7588 5.73332 31.1435 6.07229 31.2073C7.09153 31.3993 7.69323 30.1038 6.89292 29.4405C6.55759 29.1626 6.18585 29.1193 5.79177 29.3124ZM21.8202 31.095C21.7089 31.1585 21.5844 31.2592 21.5436 31.3187C21.5027 31.3781 21.4687 35.3824 21.4677 40.2173L21.4662 49.0078H24.6027H27.7393L27.7124 40.1959C27.687 31.8927 27.675 31.3738 27.505 31.2061C27.3423 31.0459 27.0637 31.0259 24.6735 31.0039C22.8051 30.9867 21.9628 31.0136 21.8202 31.095ZM5.82362 39.446C5.70217 39.4942 5.55422 39.6229 5.49496 39.732C5.42326 39.864 5.38726 41.448 5.38726 44.469V49.0078H8.52216H11.657V44.3832V39.7586L11.3906 39.5522C11.1366 39.3554 11.0058 39.346 8.58435 39.352C7.1875 39.3555 5.94517 39.3978 5.82362 39.446Z" fill="white"/>
</svg>
