<svg width="34" height="41" viewBox="0 0 34 41" fill="none" xmlns="http://www.w3.org/2000/svg">
<path fill-rule="evenodd" clip-rule="evenodd" d="M0 18.0977V36.1953H5.19709H10.3943L9.66865 37.6358L8.94313 39.0764V40.0382V41H21.4716H34V40.0291V39.0581L31.5829 34.3509L29.1659 29.6436V18.2048V6.76588L25.7615 3.38298L22.3571 0H11.1786H0V18.0977ZM19.4171 6.00586V9.60938H23.0427H26.6682V17.1501C26.6682 21.2974 26.6497 24.6724 26.6272 24.6499C26.6045 24.6274 25.7007 22.8827 24.6187 20.7727L22.6514 16.9365H21.4627H20.2739L15.9935 25.2855C13.6392 29.8774 11.6768 33.6705 11.6326 33.7144C11.5805 33.7662 9.95185 33.787 7.00481 33.7736L2.45735 33.7529L2.43696 18.0776L2.41666 2.40234H10.9168H19.4171V6.00586ZM24.0095 5.08496L26.1434 7.20703H23.9888H21.8341V5.08496C21.8341 3.91782 21.8435 2.96289 21.8548 2.96289C21.8662 2.96289 22.8358 3.91782 24.0095 5.08496ZM4.85209 13.2729L4.87441 14.4541L12.1457 14.4745L19.4171 14.495V13.2934V12.0918H12.1234H4.82985L4.85209 13.2729ZM4.83412 18.0977V19.2988H10.3128H15.7915V18.0977V16.8965H10.3128H4.83412V18.0977ZM26.4974 29.749L31.0152 38.5576L21.4969 38.578C16.2617 38.5892 11.9661 38.5859 11.9508 38.5707C11.9355 38.5555 14.0693 34.354 16.6926 29.234L21.4621 19.925L21.7209 20.4327C21.8632 20.712 24.0127 24.9043 26.4974 29.749ZM4.83412 22.9023V24.1035H8.5H12.1659V22.9023V21.7012H8.5H4.83412V22.9023ZM20.2417 28.9282L20.263 31.3506L21.4514 31.3728L22.6398 31.3949V28.9504V26.5059H21.4301H20.2204L20.2417 28.9282ZM20.2227 34.9941V36.1953H21.4313H22.6398V34.9941V33.793H21.4313H20.2227V34.9941Z" fill="white"/>
</svg>
