<svg width="48" height="39" viewBox="0 0 48 39" fill="none" xmlns="http://www.w3.org/2000/svg">
<path fill-rule="evenodd" clip-rule="evenodd" d="M20.3399 0.340383C20.152 0.5278 19.9983 0.862117 19.9983 1.08333C19.9983 1.81458 20.6038 2.16667 21.8619 2.16667H23.0423V3.87855V5.59043L22.2767 6.04067C21.8556 6.28832 21.3079 6.8341 21.0593 7.25378L20.6075 8.01667H12.3017C3.52316 8.01667 3.47402 8.0223 3.47402 9.02265C3.47402 9.7669 4.2674 10.1833 5.68501 10.1833H6.92933L6.52405 11.3208C6.30119 11.9466 4.74095 16.0949 3.057 20.5396C1.37304 24.9843 -0.00260539 28.933 3.70526e-06 29.3146C0.0121795 31.0826 1.94987 33.3108 4.27197 34.2264C6.20205 34.9876 10.0237 35.1017 11.9536 34.4558C14.7386 33.524 16.3549 32.0773 16.8846 30.0426L17.1644 28.9673L13.6893 19.7615C11.7779 14.6982 10.2142 10.4717 10.2142 10.3695C10.2142 10.2672 12.5528 10.1833 15.4109 10.1833H20.6075L21.0567 10.9417C21.3035 11.3588 21.8514 11.8644 22.2739 12.0651L23.0423 12.4302V22.6475V32.8647L22.2269 33.1123C20.9169 33.5101 20.0342 34.1621 19.3506 35.2361C18.5137 36.551 18.2807 37.9921 18.8103 38.5751C19.1714 38.9729 19.5045 39 24.0389 39C29.3441 39 29.565 38.9489 29.565 37.7232C29.565 35.7853 27.9248 33.6932 25.9797 33.1507L24.9991 32.877V22.628V12.3793L25.4883 12.2313C26.1299 12.0374 26.9539 11.2823 27.1909 10.6708C27.3799 10.1838 27.3836 10.1833 32.7068 10.1833H38.0337L37.8028 10.7792C34.4301 19.4736 31.087 28.7161 31.087 29.3449C31.087 31.1331 33.0638 33.3437 35.4796 34.2572C36.6741 34.7089 37.209 34.7739 39.6753 34.7663C42.1124 34.7588 42.6666 34.6894 43.6976 34.2626C46.2278 33.2156 47.8513 31.4455 47.9915 29.5813C48.065 28.6035 47.7176 27.5516 44.608 19.3375L41.1424 10.1833H42.3715C43.7735 10.1833 44.5673 9.76387 44.5673 9.02265C44.5673 8.02208 44.5193 8.01667 35.7181 8.01667C30.5117 8.01667 27.3908 7.93823 27.3908 7.80758C27.3908 7.45355 26.0336 6.03612 25.5018 5.8344C25.0341 5.65738 24.9991 5.52283 24.9991 3.90542V2.16667H26.1006C27.5414 2.16667 28.043 1.88695 28.043 1.08333C28.043 0.677517 27.8913 0.367684 27.6225 0.224251C27.3862 0.0983675 25.7733 0 23.9417 0C21.2679 0 20.6201 0.0613165 20.3399 0.340383ZM23.196 8.02013C22.1373 8.84997 22.6605 10.4 23.9994 10.4C24.8356 10.4 25.4339 9.84533 25.4339 9.0701C25.4339 7.83987 24.1777 7.25053 23.196 8.02013ZM8.38217 12.3502C8.31564 12.5287 7.62075 14.3813 6.83736 16.4667C3.7271 24.7485 2.60432 27.7702 2.60432 27.8581C2.60432 27.9086 5.29256 27.95 8.57807 27.95H14.5518L14.3159 27.3542C14.1861 27.0266 12.825 23.4433 11.2913 19.3919C9.7576 15.3402 8.44848 12.1715 8.38217 12.3502ZM38.2113 15.6542C37.5347 17.4714 36.2421 20.906 35.3387 23.2863C34.4353 25.6666 33.6961 27.6898 33.6961 27.7821C33.6961 27.8744 36.3737 27.95 39.6463 27.95H45.5966L43.7637 23.1292C42.7557 20.4776 41.4349 16.9678 40.8283 15.3292C40.2216 13.6907 39.6616 12.35 39.5833 12.35C39.5052 12.35 38.8877 13.837 38.2113 15.6542ZM2.38689 30.1063C2.38689 30.5896 4.03084 31.8426 5.27212 32.3052C6.98739 32.9444 9.7739 32.9994 11.4487 32.427C12.7233 31.9915 14.2068 30.9961 14.559 30.3401C14.794 29.9026 14.7599 29.9 8.59111 29.9C4.80901 29.9 2.38689 29.9806 2.38689 30.1063ZM33.4787 30.1416C33.4787 30.5955 35.0848 31.8502 36.1852 32.256C39.4459 33.4585 43.7913 32.6785 45.3861 30.6042L45.9275 29.9H39.7031C35.27 29.9 33.4787 29.9696 33.4787 30.1416ZM22.8777 35.0675C22.2845 35.2378 20.868 36.3363 20.868 36.626C20.868 36.7484 22.1573 36.8333 24.0207 36.8333C25.7546 36.8333 27.1733 36.7491 27.1733 36.6461C27.1733 36.5432 26.9166 36.2033 26.603 35.8906C25.7496 35.0404 24.18 34.6935 22.8777 35.0675Z" fill="white"/>
</svg>
