<svg width="84" height="101" viewBox="0 0 84 101" fill="none" xmlns="http://www.w3.org/2000/svg">
<path fill-rule="evenodd" clip-rule="evenodd" d="M24.0969 0.0752743C21.2698 0.557227 18.7944 2.68714 17.8692 5.43389L17.5841 6.28027L11.3166 6.28106C7.59251 6.28146 4.79086 6.32211 4.41273 6.38132C3.45764 6.53062 2.2657 7.15764 1.53481 7.89507C0.869036 8.56679 0.29353 9.62335 0.113672 10.5037C-0.0382816 11.2474 -0.0376945 84.8003 0.114259 85.5402C0.41288 86.9943 1.46647 88.3881 2.79724 89.0895C4.16072 89.8082 2.65165 89.7636 25.6192 89.7636H46.2465L45.8029 90.2415C45.336 90.7445 45.1152 91.1125 45.0066 91.5684C44.8753 92.1205 45.2206 92.5816 47.3579 94.7075C49.744 97.0811 49.9804 97.2318 50.7669 96.8812C51.0178 96.7693 51.5095 96.4006 51.8596 96.0618C52.4582 95.4825 52.5087 95.4542 52.7112 95.5861C53.4556 96.0707 55.5232 97.0099 56.6244 97.3635C57.3368 97.5923 58.0189 97.8178 58.14 97.8646C58.3466 97.9445 58.3603 98.0068 58.3603 98.8685C58.3603 99.6248 58.3991 99.8648 58.5806 100.227C58.9737 101.013 59.022 101.022 62.5703 100.991C65.3018 100.967 65.6907 100.944 65.971 100.789C66.4543 100.523 66.6101 100.119 66.6748 98.9618C66.7325 97.9279 66.8017 97.7619 67.1766 97.7581C67.7551 97.7524 70.9672 96.4158 72.1874 95.673L72.5521 95.451L73.1859 96.0644C73.5344 96.4018 74.02 96.7671 74.2651 96.8763C75.0634 97.2322 75.2028 97.1545 77.1482 95.2705C79.964 92.5436 80.307 92.0459 79.9399 91.2211C79.8373 90.9905 79.4776 90.507 79.1407 90.1466L78.528 89.4914L79.1604 88.2701C79.8688 86.9023 80.1749 86.1441 80.629 84.6322L80.9401 83.5961L81.9622 83.5467C83.1388 83.4899 83.5594 83.3127 83.8436 82.7539C84.0011 82.444 84.0149 82.1204 83.9905 79.3035C83.9665 76.5505 83.9436 76.1585 83.7903 75.876C83.5227 75.3825 83.1256 75.2285 81.9578 75.1652L80.9313 75.1096L80.6265 74.0734C80.2408 72.7621 79.7395 71.5406 79.0519 70.2365L78.5119 69.212L79.0911 68.6082C80.0431 67.6162 80.2571 67.0777 79.9439 66.4623C79.7509 66.0832 77.072 63.259 76.0945 62.4041C74.9661 61.4173 74.4488 61.4576 73.206 62.6293L72.5463 63.2513L72.1846 63.0305C70.9646 62.2861 68.693 61.3379 67.2109 60.9544L66.8092 60.8505L66.7536 59.9109C66.6863 58.7742 66.4552 58.2076 65.9464 57.9315L65.6055 57.7463L65.6038 34.4557C65.6024 14.6258 65.5812 11.0659 65.4619 10.4982C65.1634 9.07864 64.1129 7.64985 62.8811 6.9881C61.615 6.308 62.0335 6.34284 54.6708 6.30534L47.995 6.27139L47.7791 5.60974C46.9327 3.01633 44.9318 1.05744 42.2995 0.244905L41.569 0.0194213L33.0999 0.00185607C28.2885 -0.00820929 24.4002 0.023566 24.0969 0.0752743ZM24.2012 3.27853C22.9486 3.61808 21.7635 4.55268 21.1751 5.6651C20.6227 6.70973 20.5676 7.11659 20.5676 10.1495V12.8918H32.8138H45.06L45.022 9.9561C44.9867 7.23066 44.9686 6.97853 44.7691 6.43628C44.1652 4.79415 42.7351 3.52829 41.1391 3.22327C40.806 3.15952 37.6908 3.12488 32.6705 3.12903C26.0585 3.13445 24.6404 3.15942 24.2012 3.27853ZM4.59729 9.57421C4.01865 9.78262 3.66158 10.0993 3.39311 10.6422L3.13992 11.1544V48.03V84.9057L3.41348 85.4335C3.61272 85.8177 3.81696 86.0422 4.16463 86.2589L4.64213 86.5565L24.8508 86.582C41.0606 86.6025 45.0528 86.5831 45.0256 86.4833C44.9512 86.21 44.2374 83.9771 44.1614 83.7802C44.0874 83.5882 43.9912 83.5661 43.0693 83.5285C41.9168 83.4816 41.524 83.3305 41.2524 82.8296C41.0971 82.5431 41.0794 82.1834 41.0794 79.3035C41.0794 76.1411 41.0825 76.092 41.2985 75.7869C41.6184 75.3349 42.1479 75.1589 43.1886 75.1589C44.0122 75.1589 44.0753 75.1444 44.1544 74.9369C44.2008 74.8148 44.4245 74.1274 44.6515 73.4093C45.0018 72.3012 45.9344 70.2149 46.4133 69.4681C46.5418 69.2679 46.5105 69.2108 45.9311 68.5865C45.5904 68.2194 45.2254 67.7226 45.1199 67.4825C44.7821 66.7128 44.9428 66.4621 47.3295 64.0338C49.7032 61.6187 49.9025 61.4862 50.6989 61.7908C50.9907 61.9024 51.4103 62.2078 51.8252 62.6101L52.4863 63.2515L52.9511 62.9815C54.3361 62.177 56.533 61.2658 57.8357 60.9556L58.3391 60.8357L58.3787 59.7822C58.4482 57.9324 58.6514 57.7674 60.9304 57.7104L62.4724 57.6718L62.4718 34.5171C62.4716 18.3704 62.4396 11.2471 62.3666 10.9819C62.3089 10.7727 62.0833 10.4064 61.8652 10.168C61.1845 9.42372 61.3324 9.43803 54.3282 9.43803H48.1778L48.1757 12.0777C48.1732 15.0392 48.124 15.2999 47.4794 15.7633L47.1498 16.0003H32.7888C18.4372 16.0003 18.4278 16.0002 18.1576 15.7968C18.0089 15.6849 17.7964 15.4708 17.6854 15.321C17.4943 15.0633 17.4819 14.8985 17.4547 12.2434L17.4259 9.43803L11.1886 9.44238C6.34779 9.44573 4.87202 9.47524 4.59729 9.57421ZM8.426 19.9228C8.248 20.0449 8.01018 20.2701 7.89749 20.4234C7.69453 20.6995 7.69267 20.7614 7.69267 27.2004C7.69267 33.6395 7.69453 33.7014 7.89749 33.9775C8.01018 34.1307 8.24927 34.3569 8.42903 34.4802L8.75566 34.7043L15.193 34.6775C21.5635 34.6511 21.6333 34.6486 21.9067 34.4431C22.0588 34.3289 22.2712 34.0846 22.3789 33.9003C22.5642 33.5835 22.5774 33.3389 22.6237 29.3922L22.6727 25.2191L24.529 23.8168C25.55 23.0455 26.4752 22.2891 26.5851 22.1359C26.8789 21.7261 26.8595 20.931 26.5445 20.4677C26.2258 19.999 25.8672 19.7989 25.3501 19.8016C24.7993 19.8044 24.3112 20.0353 23.414 20.717C23.0141 21.0209 22.6506 21.2471 22.6063 21.2194C22.562 21.1919 22.5256 21.072 22.5254 20.9531C22.5249 20.6339 22.1807 20.1211 21.8168 19.8976C21.5071 19.7073 21.3113 19.7014 15.1237 19.7011L8.74968 19.7008L8.426 19.9228ZM31.9638 19.9404C30.874 20.4186 30.8803 22.2824 31.9734 22.7697C32.3868 22.954 32.6832 22.9596 40.9187 22.9341C49.4045 22.908 49.4374 22.9071 49.7127 22.7001C50.1574 22.3661 50.3749 21.9003 50.3662 21.3006C50.3577 20.7072 50.1762 20.3842 49.6474 20.0215L49.3237 19.7994L40.7957 19.8033C33.8547 19.8064 32.2111 19.832 31.9638 19.9404ZM10.7768 27.2004V31.5424H15.1337H19.4906V29.6181C19.4906 28.5598 19.4576 27.6955 19.4172 27.6976C19.3768 27.6997 18.8151 28.0999 18.1689 28.587C16.3089 29.9892 15.8213 30.1702 15.0597 29.7414C14.5814 29.4722 11.6135 25.9358 11.4521 25.4426C11.3022 24.9851 11.4192 24.4935 11.7753 24.0849C12.1619 23.641 12.5298 23.4506 13.0009 23.4506C13.5827 23.4506 13.9163 23.7063 14.9962 24.9801C15.5483 25.6314 16.0255 26.1739 16.0565 26.1856C16.0874 26.1974 16.8618 25.6423 17.7772 24.9521C19.44 23.6986 19.4417 23.6969 19.4717 23.2779L19.5019 22.8585H15.1393H10.7768V27.2004ZM26.8967 25.5249C26.7428 25.5718 26.5273 25.6904 26.4178 25.7885C26.151 26.0276 25.8595 26.6862 25.8568 27.0562C25.8535 27.5191 26.2455 28.1957 26.6364 28.402C26.9619 28.5737 27.6113 28.582 40.7841 28.5816C54.3883 28.5813 54.5955 28.5783 54.9099 28.3851C55.8585 27.8022 55.8658 26.2324 54.9224 25.6709C54.5954 25.4763 54.3996 25.4733 40.8836 25.4567C33.3447 25.4474 27.0505 25.4781 26.8967 25.5249ZM26.8338 31.5533C25.9337 31.9174 25.6104 33.0758 26.1582 33.9742C26.556 34.6267 26.2205 34.6014 34.487 34.6014C42.9644 34.6014 42.4329 34.652 42.8726 33.8047C43.269 33.0412 43.0731 32.2306 42.3635 31.6965C42.0965 31.4955 42.0004 31.4928 34.5859 31.4737C29.7456 31.4611 26.9916 31.4895 26.8338 31.5533ZM8.52117 44.0007C8.20199 44.1629 8.02497 44.3413 7.86401 44.663L7.64371 45.1034V51.3174C7.64371 57.4009 7.64802 57.5405 7.84648 57.9538C7.96554 58.2015 8.19797 58.4691 8.40945 58.6016L8.76966 58.8274L14.8889 58.8564C19.3624 58.8776 21.1205 58.8541 21.4257 58.7692C21.9205 58.6314 22.3721 58.1576 22.5199 57.6212C22.5836 57.3901 22.6231 55.7488 22.6239 53.3013L22.6252 49.3541L24.5468 47.929C26.1435 46.7449 26.499 46.4361 26.649 46.1034C26.8867 45.5757 26.8793 45.2928 26.6135 44.7625C26.0205 43.5795 24.9907 43.6071 23.386 44.8489C23.0245 45.1286 22.6887 45.3576 22.6398 45.3576C22.5908 45.3576 22.5241 45.1911 22.4914 44.9875C22.4588 44.784 22.3147 44.4905 22.1712 44.3351C21.646 43.7668 21.7964 43.7787 15.1086 43.7787H8.95803L8.52117 44.0007ZM31.9665 44.0766C30.9406 44.5884 30.8559 46.164 31.8194 46.8127L32.1544 47.0383L40.8585 47.012L49.5626 46.9858L49.9327 46.5859C50.1553 46.3453 50.3296 46.0412 50.3704 45.8226C50.5149 45.0465 50.0374 44.1661 49.3709 43.9795C49.1378 43.9143 46.0626 43.8782 40.6878 43.8779C32.5378 43.8776 32.3574 43.8816 31.9665 44.0766ZM10.7768 51.3287V55.721L15.1092 55.6953L19.4417 55.6696L19.4684 53.8472C19.4832 52.8449 19.4734 51.9674 19.4467 51.8973C19.4147 51.8133 18.9787 52.0845 18.1686 52.6922C16.7509 53.7559 16.2348 54.0414 15.7301 54.0414C15.0347 54.0414 14.7687 53.8029 12.8569 51.4662C11.4792 49.7822 11.3232 49.5181 11.3936 48.9889C11.4568 48.5142 11.6476 48.2139 12.1134 47.8558C12.5542 47.517 13.3134 47.4693 13.7437 47.7534C13.89 47.85 14.4588 48.4618 15.0078 49.1131C15.5748 49.7857 16.059 50.2767 16.129 50.2496C16.1967 50.2234 16.9808 49.6582 17.8714 48.9937L19.4906 47.7855V47.361V46.9364H15.1337H10.7768V51.3287ZM26.5588 49.8005C26.1986 50.0219 25.8602 50.6649 25.8568 51.1341C25.854 51.5343 26.2292 52.2544 26.5717 52.506C26.8477 52.7089 26.8715 52.7092 40.7194 52.7092C54.4163 52.7092 54.5949 52.7067 54.9183 52.5119C55.857 51.9462 55.8522 50.3766 54.9099 49.7977C54.5955 49.6043 54.3885 49.6015 40.7368 49.6015C27.0163 49.6015 26.8796 49.6035 26.5588 49.8005ZM26.5588 55.82C26.1986 56.0413 25.8602 56.6843 25.8568 57.1536C25.8536 57.6092 26.2465 58.301 26.6379 58.5291C26.9723 58.7239 27.1569 58.7294 34.2259 58.7556C39.2212 58.7743 41.6119 58.7491 41.9245 58.6746C43.2113 58.3681 43.5172 56.5889 42.4112 55.8443L42.0785 55.6203L34.4806 55.6207C27.0342 55.621 26.8763 55.625 26.5588 55.82ZM61.4631 61.6246C61.3923 62.5509 61.1756 63.1522 60.8213 63.4062C60.6793 63.508 60.0898 63.6878 59.5112 63.8058C57.6254 64.1902 56.2342 64.7465 54.4527 65.8283C52.2647 67.1571 51.9336 67.181 50.874 66.0881C50.6067 65.8124 50.3412 65.587 50.2839 65.587C50.1506 65.587 48.8632 66.8906 48.8632 67.0256C48.8632 67.0815 49.023 67.2801 49.2186 67.4672C49.7934 68.0172 50.136 68.6264 50.136 69.0986C50.136 69.4387 50.0308 69.6739 49.5469 70.4169C48.461 72.0835 47.8191 73.5587 47.3422 75.4834C46.7929 77.7003 46.603 78.0413 45.8246 78.2095C45.5519 78.2684 45.0667 78.3167 44.7462 78.3167H44.1636V79.3386V80.3605L44.9515 80.4268C45.8996 80.5065 46.4487 80.711 46.7108 81.082C46.8181 81.2338 46.9736 81.7283 47.0566 82.181C47.4024 84.0681 47.9955 85.6047 49.101 87.4773C50.4246 89.7194 50.4463 90.0226 49.3603 91.092C49.0869 91.3614 48.8632 91.629 48.8632 91.6867C48.8632 91.8095 50.1509 93.1187 50.2716 93.1187C50.3165 93.1187 50.5867 92.9037 50.872 92.6408C51.9957 91.6058 52.3761 91.592 53.8167 92.5342C55.5933 93.6961 56.5726 94.1124 59.0364 94.7531C60.525 95.1402 61.0871 95.4096 61.2912 95.834C61.3691 95.9959 61.4518 96.5184 61.4752 96.9951L61.5176 97.8617L62.558 97.8339L63.5984 97.806L63.6515 96.9179C63.7116 95.916 63.8901 95.471 64.3224 95.2456C64.4765 95.1653 65.0569 95.0047 65.6121 94.8888C67.482 94.4982 68.973 93.8882 70.8108 92.7619C72.7746 91.5582 73.1271 91.5431 74.1688 92.6176C74.4361 92.8932 74.6993 93.1187 74.754 93.1187C74.8086 93.1187 75.1714 92.8001 75.5602 92.4108L76.2672 91.703L75.7514 91.1414C74.7673 90.0701 74.6793 89.5314 75.3309 88.5662C76.5557 86.752 77.165 85.3718 77.7642 83.0533C77.9816 82.2121 78.2432 81.3582 78.3454 81.1558C78.6076 80.6366 79.0044 80.4598 80.0225 80.4082L80.8792 80.3648V79.351V78.3372L80.0715 78.2679C79.0889 78.1838 78.4991 77.9451 78.2963 77.5499C78.2142 77.3901 78.0565 76.8111 77.9458 76.2634C77.5627 74.3685 76.9678 72.8913 75.8256 70.9981C74.6192 68.9987 74.6103 68.6714 75.732 67.5634L76.2786 67.0235L75.5706 66.3052C75.1813 65.9102 74.8218 65.587 74.7719 65.587C74.7219 65.587 74.4458 65.8111 74.1585 66.085C73.1087 67.0856 72.6534 67.1082 71.3246 66.2252C69.6143 65.0887 68.4252 64.5786 66.0625 63.9683C64.6137 63.594 64.013 63.3334 63.8219 62.9963C63.7529 62.8743 63.6743 62.3527 63.6473 61.8371L63.5984 60.8997L62.5606 60.8718L61.5228 60.8439L61.4631 61.6246ZM8.57384 68.0483C8.24614 68.183 7.84511 68.6529 7.73653 69.0296C7.66799 69.267 7.64352 71.4819 7.6632 75.66L7.69267 81.934L7.95643 82.2824C8.48602 82.9821 8.19317 82.9546 15.1279 82.9546C21.1327 82.9546 21.3724 82.9476 21.7366 82.7603C21.9444 82.6535 22.218 82.3982 22.3446 82.1929L22.5747 81.8198L22.6032 77.6508L22.6317 73.4818L24.4863 72.0929C25.5063 71.3291 26.4282 70.5806 26.5349 70.4295C27.2127 69.4702 26.5074 68.0126 25.3681 68.0181C24.8307 68.0207 24.1929 68.3323 23.3121 69.0227C22.9638 69.2957 22.6444 69.4976 22.6023 69.4715C22.5603 69.4452 22.5256 69.3265 22.5254 69.2076C22.5249 68.8884 22.1807 68.3757 21.8168 68.1521C21.5069 67.9616 21.3171 67.9562 15.1337 67.9619C11.6335 67.9651 8.68154 68.004 8.57384 68.0483ZM31.8219 68.2747C31.3363 68.6017 31.1223 69.0724 31.1691 69.7109C31.2099 70.2658 31.4022 70.6108 31.8648 70.9589C32.1267 71.156 32.251 71.1624 35.824 71.1624C39.9715 71.1624 39.9155 71.1717 40.3359 70.4177C40.7157 69.7366 40.5802 68.8929 40.0039 68.35L39.7421 68.1033L35.9507 68.0754L32.1594 68.0474L31.8219 68.2747ZM61.0611 69.0446C58.8536 69.3944 56.9784 70.3439 55.3503 71.9362C53.9535 73.3023 53.0129 74.9206 52.5139 76.8161C52.2931 77.6549 52.2618 77.9701 52.2618 79.3528C52.2618 80.7355 52.2931 81.0507 52.5139 81.8895C52.9958 83.72 53.8283 85.1943 55.1628 86.5804C56.5185 87.9885 58.1249 88.9369 60.0046 89.4388C60.8336 89.6601 61.1547 89.6928 62.5214 89.6947C63.9116 89.6966 64.1982 89.6672 65.067 89.4341C67.4225 88.8019 69.5594 87.3295 70.929 85.3952C71.5542 84.512 72.2222 83.0527 72.5304 81.8965C72.7581 81.0421 72.7873 80.751 72.7852 79.3528C72.7832 77.9635 72.7517 77.6554 72.5234 76.7871C71.3317 72.2537 67.455 69.124 62.8641 68.9889C62.1909 68.9691 61.3796 68.9942 61.0611 69.0446ZM11.1439 71.0836L10.7768 71.125V75.4609V79.7969H15.1337H19.4906V77.8726C19.4906 76.8143 19.4561 75.9484 19.4138 75.9484C19.3715 75.9484 18.8318 76.327 18.2144 76.7897C16.7878 77.8589 16.003 78.2655 15.5362 78.1772C15.0452 78.0844 14.3761 77.4319 12.8249 75.5335C11.304 73.6722 11.2109 73.4699 11.5243 72.7078C11.8672 71.8741 12.7975 71.4621 13.5903 71.793C13.7764 71.8707 14.3248 72.4223 14.982 73.1927L16.0667 74.4643L17.7541 73.2026L19.4417 71.9409V71.5023V71.0637L15.4764 71.0529C13.2955 71.0471 11.3459 71.0608 11.1439 71.0836ZM61.1017 72.2464C59.1211 72.6904 57.3215 73.9819 56.3217 75.6766C55.2808 77.4412 55.0635 79.7736 55.7538 81.7741C56.5957 84.2141 58.8088 86.0711 61.3954 86.5081C65.8641 87.263 69.9354 83.5596 69.691 78.9621C69.5896 77.0536 68.9425 75.6363 67.5248 74.2178C66.129 72.8212 64.7354 72.2129 62.7662 72.1412C62.0969 72.1167 61.5161 72.1534 61.1017 72.2464ZM26.8338 73.7893C25.9047 74.1616 25.5749 75.4808 26.2182 76.2514C26.7253 76.8588 26.4722 76.8365 32.8599 76.8365C39.3144 76.8365 39.1311 76.8536 39.5883 76.2076C39.7603 75.9644 39.8066 75.763 39.8066 75.2576C39.8066 74.7522 39.7603 74.5508 39.5883 74.3076C39.1307 73.6611 39.3132 73.678 32.8893 73.6849C29.2837 73.6889 26.9856 73.7284 26.8338 73.7893ZM26.637 79.9202C26.0809 80.3016 25.9069 80.6251 25.9069 81.2771C25.9069 81.9058 26.0641 82.2166 26.5776 82.6031C26.84 82.8007 26.9783 82.8074 31.2996 82.8341C35.5604 82.8606 35.77 82.8534 36.1908 82.6658C37.2516 82.1927 37.2791 80.4415 36.2345 79.8812C35.9166 79.7107 35.5882 79.6982 31.4269 79.6982H26.9607L26.637 79.9202Z" fill="#4D4D4D"/>
</svg>
