<svg width="49" height="45" viewBox="0 0 49 45" fill="none" xmlns="http://www.w3.org/2000/svg">
<path fill-rule="evenodd" clip-rule="evenodd" d="M12.193 0.249317C11.683 0.588238 11.4926 0.980132 11.4872 1.70272L11.4828 2.31344H10.6845C9.65854 2.31344 9.1052 2.47828 8.64218 2.9216C8.14281 3.39989 7.91035 3.87845 7.91035 4.42849V4.88492H4.16633C0.701214 4.88492 0.406617 4.90241 0.211155 5.12009C0.0165861 5.33673 0 6.89916 0 24.9774V44.5998L0.283624 44.7998C0.5365 44.9784 2.28392 45 16.4778 45H32.3884L32.6528 44.6612C32.9 44.3445 32.9173 44.1573 32.9173 41.785V39.2476L33.6939 39.0937C36.6669 38.5042 39.5859 36.7925 41.5264 34.5005C44.6432 30.8194 45.719 26.1697 44.5261 21.5353C44.1788 20.1857 43.0664 17.9187 42.1655 16.7244L41.4462 15.7708L42.6002 14.6077L43.7543 13.4446L44.9748 13.3756L46.1953 13.3065L47.5943 11.8809C49.0677 10.3794 49.2421 10.0377 48.7598 9.5978C48.5875 9.44068 48.2826 9.38501 47.5939 9.38501H46.6614L46.7443 8.5687C46.8164 7.85974 46.7923 7.70751 46.5613 7.41153C46.415 7.22407 46.1771 7.07068 46.0326 7.07068C45.7268 7.07068 43.1427 9.50613 42.9066 10.0167C42.822 10.1997 42.7503 10.7844 42.7472 11.3162L42.7414 12.2831L41.549 13.4796L40.3566 14.6762L39.5134 14.0331C37.8111 12.7346 35.6039 11.722 33.8423 11.431L32.9173 11.2784V8.45889C32.9173 5.7006 32.8593 5.23619 32.4835 4.98328C32.4063 4.93134 30.6991 4.88801 28.6896 4.88685L25.0359 4.88492L24.9512 4.31573C24.7575 3.01417 23.8076 2.31344 22.2368 2.31344H21.3069V1.63496C21.3069 0.872387 21.1001 0.483194 20.54 0.191202C20.237 0.0333133 19.494 -0.000758752 16.3693 1.26918e-05C12.826 0.000784136 12.5417 0.0177553 12.193 0.249317ZM13.1414 2.76345V3.98491H16.4586H19.7759V2.76345V1.542H16.4586H13.1414V2.76345ZM9.59449 4.13919C9.49204 4.24244 9.44139 4.81639 9.44139 5.87494V7.4564H16.3948H23.3483V5.87494C23.3483 4.81639 23.2976 4.24244 23.1952 4.13919C23.1061 4.04945 22.6792 3.98491 22.1745 3.98491H21.3069V4.54356C21.3069 5.55672 21.4521 5.52779 16.3601 5.52779H11.8799L11.6814 5.24197C11.5722 5.08486 11.4828 4.73771 11.4828 4.47053V3.98491H10.6152C10.1104 3.98491 9.68355 4.04945 9.59449 4.13919ZM1.53104 24.9425V43.4571H16.3948H31.2586V41.3999V39.3427H30.6299C28.7999 39.3427 26.3304 38.6868 24.4966 37.7135C22.2969 36.546 20.2492 34.5878 19.0411 32.4962L18.4656 31.4997H15.3153C12.1874 31.4997 12.1632 31.4977 11.8877 31.2022C11.5301 30.8184 11.536 30.4578 11.9056 30.1078C12.1901 29.8384 12.3024 29.8283 14.9763 29.8283C17.5605 29.8283 17.747 29.8127 17.6835 29.6033C17.2225 28.0834 16.8977 25.7359 16.9999 24.6633L17.0591 24.0424H14.6122C12.2193 24.0424 12.1591 24.0359 11.8877 23.7449C11.5301 23.3611 11.536 23.0005 11.9056 22.6505C12.1887 22.3826 12.3077 22.371 14.7763 22.371C17.1778 22.371 17.3517 22.3553 17.3517 22.138C17.3517 21.3753 18.5121 18.6663 19.4106 17.3315C19.6817 16.9288 19.9035 16.5672 19.9035 16.5279C19.9035 16.4887 18.1326 16.4566 15.9681 16.4566C12.3176 16.4566 12.0174 16.4396 11.8215 16.2214C11.5376 15.9053 11.5552 15.4835 11.8655 15.1708C12.1114 14.9231 12.2908 14.9137 16.781 14.9137H21.4413L22.2582 14.2347C24.4762 12.3911 27.6907 11.1867 30.3974 11.1854L31.2586 11.185V8.80643V6.42781H28.1328H25.0069V7.42773C25.0069 8.12473 24.9467 8.51431 24.8083 8.71347L24.6097 8.99929H16.4605C9.22232 8.99929 8.2889 8.97666 8.11079 8.7973C7.96024 8.64558 7.91035 8.32531 7.91035 7.51156V6.42781H4.72069H1.53104V24.9425ZM44.7018 10.3074C44.5498 10.4748 44.3923 10.8752 44.3436 11.2172L44.2568 11.8279H44.8368C45.3013 11.8279 45.4996 11.7519 45.8333 11.4459L46.25 11.0641L45.8979 11.0602C45.5237 11.0562 45.1436 10.7082 45.0375 10.2723C44.9742 10.0125 44.9688 10.0131 44.7018 10.3074ZM28.9621 12.8482C22.9044 13.9738 18.6368 19.0787 18.6293 25.2081C18.6275 26.717 18.7651 27.681 19.161 28.9283C20.8533 34.2611 25.5456 37.6979 31.1305 37.6952C32.4262 37.6946 32.9655 37.6323 34.0018 37.3639C38.4527 36.2108 41.8465 32.7905 43.0736 28.2211C43.2683 27.4963 43.3139 26.8954 43.3079 25.1353C43.301 23.1347 43.271 22.8531 42.9538 21.8113C42.5271 20.4093 41.7675 18.8537 40.9863 17.7815C40.6615 17.3356 40.365 16.9709 40.3274 16.9709C40.2898 16.9709 39.8222 17.4087 39.2882 17.9437L38.3171 18.9165L38.9811 19.9335C39.3942 20.5662 39.8053 21.4252 40.0691 22.2072C40.4672 23.3868 40.4932 23.5702 40.4924 25.1996C40.4918 26.6787 40.4452 27.0877 40.1772 27.9656C39.2318 31.0631 36.8071 33.4942 33.6828 34.4773C32.8614 34.7357 32.4729 34.777 30.9397 34.7686C29.3844 34.7601 29.027 34.7165 28.1753 34.4321C25.0309 33.3817 22.5759 30.7927 21.7371 27.6425C21.4238 26.4654 21.4252 24.0205 21.7399 22.8349C22.7194 19.1454 25.598 16.4801 29.3936 15.7483C30.6462 15.5068 31.3607 15.5068 32.6134 15.7483C33.9898 16.0136 35.212 16.5099 36.2829 17.2382L37.1914 17.8562L38.181 16.8693C38.7253 16.3266 39.1559 15.8407 39.1379 15.7895C39.0535 15.5494 37.5749 14.5754 36.4259 14.003C34.6375 13.1121 33.5099 12.8435 31.3224 12.7873C30.34 12.762 29.2779 12.7894 28.9621 12.8482ZM7.40613 14.0718L6.20529 15.2871L5.71778 14.8432C5.44972 14.5991 5.12846 14.3994 5.00394 14.3994C4.59005 14.3994 4.21035 14.7751 4.21035 15.1846C4.21035 15.6957 5.65092 17.228 6.13141 17.228C6.36554 17.228 6.86567 16.8049 8.07162 15.5869C9.78472 13.8567 9.9664 13.5282 9.4632 13.0693C8.9905 12.6381 8.66719 12.7956 7.40613 14.0718ZM29.0018 17.4844C26.4025 18.171 24.3945 20.0163 23.4994 22.5412C23.0702 23.752 22.9643 25.8994 23.2728 27.138C23.9583 29.8904 26.1335 32.1664 28.8244 32.9472C29.9818 33.2831 32.0415 33.2842 33.1825 32.9497C35.2851 32.3333 37.2193 30.7013 38.1242 28.7799C38.4022 28.1897 38.6986 27.4175 38.7829 27.0639C38.9968 26.1675 38.9655 24.1313 38.7238 23.2161C38.4814 22.2986 37.8913 21.0356 37.4579 20.5067L37.1419 20.1209L36.1536 21.1107L35.1653 22.1005L35.5028 22.7822C36.8478 25.4994 35.8325 28.5905 33.1724 29.8771C32.4059 30.2479 32.2414 30.2783 31.0008 30.2783C29.7456 30.2783 29.6041 30.2513 28.8205 29.8625C27.7988 29.3556 26.7818 28.3152 26.3248 27.3092C25.5961 25.7053 25.8417 23.6117 26.9296 22.1539C27.5312 21.3478 28.027 20.9531 29.0312 20.4809C29.6949 20.169 29.9463 20.1234 31.0115 20.1222C32.1543 20.1211 32.2897 20.1499 33.1448 20.5776L34.0579 21.0345L35.0505 20.0231L36.0431 19.0119L35.6715 18.7092C34.12 17.4454 31.188 16.907 29.0018 17.4844ZM7.41404 21.5265L6.18794 22.7392L5.7114 22.298C5.16788 21.7947 4.83157 21.745 4.46552 22.1138C4.00583 22.5771 4.13418 22.9799 5.02805 23.8807C5.67223 24.53 5.91439 24.6959 6.17007 24.6628C6.38276 24.6354 7.04519 24.0745 8.09548 23.0322C9.39826 21.7394 9.69656 21.3754 9.69656 21.0788C9.69656 20.6831 9.30474 20.3138 8.88473 20.3138C8.74757 20.3138 8.1016 20.8465 7.41404 21.5265ZM29.6776 21.9102C29.0251 22.1545 28.1048 23.0609 27.7736 23.7853C27.3812 24.6437 27.4141 25.9558 27.8497 26.8184C28.4998 28.1059 29.5075 28.7103 31.0035 28.7103C31.6164 28.7103 32.1307 28.6341 32.4341 28.4982C33.9341 27.8261 34.7881 26.1417 34.453 24.5152C34.1778 23.1797 34.1375 23.1832 32.7112 24.6638C31.6457 25.7701 31.3888 25.973 31.0551 25.9721C30.8358 25.9716 30.5664 25.8665 30.4491 25.7359C30.0259 25.2647 30.1813 24.962 31.5807 23.531L32.9233 22.1579L32.5695 21.9883C32.0388 21.7343 30.2748 21.6865 29.6776 21.9102ZM7.41404 28.9815L6.18794 30.1919L5.74623 29.8172C5.24163 29.3893 4.72899 29.3353 4.4215 29.6777C4.01884 30.1262 4.15714 30.5075 5.02856 31.3507C6.20542 32.4895 6.21856 32.4862 8.12801 30.5619C9.47022 29.2093 9.69656 28.9227 9.69656 28.5763C9.69656 28.1393 9.32528 27.7711 8.88473 27.7711C8.74783 27.7711 8.10058 28.3038 7.41404 28.9815ZM7.38151 36.4745L6.12299 37.7205L5.70285 37.3102C5.22657 36.8451 4.74149 36.7787 4.4215 37.135C4.02726 37.574 4.16072 37.9505 5.01121 38.8C6.1873 39.9747 6.22545 39.965 8.14013 38.0134C9.80603 36.3153 9.9627 36.0109 9.44139 35.4855C8.9868 35.0274 8.70777 35.1615 7.38151 36.4745ZM11.8215 37.6493C11.5376 37.9655 11.5552 38.3872 11.8655 38.6999C12.1115 38.9478 12.2908 38.957 16.8216 38.957C21.2138 38.957 21.5364 38.9416 21.7337 38.7219C22.0003 38.4249 22.0057 37.8796 21.7444 37.6161C21.5692 37.4397 20.9414 37.4141 16.7883 37.4141C12.3432 37.4141 12.0189 37.4294 11.8215 37.6493Z" fill="white"/>
</svg>
