<svg width="94" height="94" viewBox="0 0 94 94" fill="none" xmlns="http://www.w3.org/2000/svg">
<path fill-rule="evenodd" clip-rule="evenodd" d="M73.4093 5.37244L67.937 10.8494L66.7949 10.1915C61.658 7.2325 55.8054 5.32454 49.7257 4.62693C47.1654 4.33315 42.3952 4.33315 39.8349 4.62693C36.2006 5.04401 32.5756 5.89827 29.2558 7.12011C25.2848 8.58172 20.1603 11.4931 16.7078 14.2494C13.9131 16.4807 10.1554 20.5358 7.95953 23.6905C0.42694 34.512 -1.90569 48.1982 1.58955 61.0641C2.69645 65.1384 4.88377 69.992 7.21714 73.5511C10.2747 78.2152 14.3349 82.4715 18.7442 85.6353C31.719 94.9454 48.7398 96.6106 63.2836 89.9929C66.5565 88.5037 69.6467 86.6145 72.5619 84.3206C74.5006 82.7951 78.2725 79.0253 79.818 77.0686C87.7338 67.0465 91.0155 54.4729 88.9812 41.9606C88.1514 36.8569 86.3359 31.6503 83.901 27.3918C83.4915 26.6757 83.1782 26.0258 83.2047 25.9477C83.231 25.8695 85.7341 23.3191 88.7668 20.2801C93.6709 15.3661 94.2423 14.7462 93.9304 14.6794C93.7377 14.6381 92.7944 14.5005 91.8344 14.3737C84.6056 13.419 81.5078 12.9748 81.4245 12.8811C81.3711 12.8211 80.8174 9.92235 80.1937 6.43939C79.5701 2.95642 79.0199 0.0591113 78.9708 0.00102542C78.9217 -0.0570604 76.419 2.35998 73.4093 5.37244ZM73.0118 11.0116L69.4748 14.5538L70.2989 18.1031C70.7521 20.0552 71.1837 21.8844 71.258 22.168L71.3932 22.6836L73.4683 23.1642C74.6099 23.4284 76.3853 23.8439 77.4141 24.0874L79.2843 24.5302L82.8332 20.9805C86.2362 17.5766 86.3655 17.4268 85.981 17.3359C85.7605 17.2838 83.9254 17.0257 81.903 16.7622C78.5074 16.32 78.2212 16.2603 78.1599 15.9834C78.1234 15.8186 77.7663 13.8557 77.3662 11.6215C76.9659 9.38735 76.6183 7.53923 76.5936 7.51448C76.5688 7.48973 74.9571 9.06344 73.0118 11.0116ZM42.0894 8.12446C39.7309 8.35185 38.2541 8.54605 36.9985 8.79354C30.5509 10.0652 24.66 12.7511 19.4714 16.7851C17.7091 18.1551 14.8387 20.9447 13.2644 22.817C10.0574 26.631 7.19968 31.8098 5.63548 36.6424C3.55404 43.0732 3.14473 50.5368 4.50167 57.3191C6.73889 68.5025 13.7724 78.4763 23.6168 84.4253C32.6239 89.8682 43.5423 91.6241 53.8711 89.2911C58.9744 88.1384 64.3208 85.7578 68.4165 82.8146C81.7545 73.2294 88.0957 57.5101 85.1317 41.3783C84.7443 39.27 84.1091 37.0346 83.1874 34.5361C82.7938 33.4693 80.8066 29.2642 80.4561 28.7566C80.3897 28.6604 78.0824 28.0516 75.3287 27.4034L70.322 26.2251L68.8268 27.7239L67.3317 29.2224L68.1459 30.2365C71.482 34.3911 73.6359 39.1911 74.5496 44.5082C74.9459 46.8128 74.9069 51.9679 74.4759 54.262C73.7444 58.1559 72.5113 61.4713 70.6339 64.5909C67.567 69.687 63.106 73.776 57.8401 76.3176C44.8824 82.5713 29.3982 78.7786 20.6803 67.2154C17.7465 63.3241 15.9763 59.1639 15.0137 53.898C14.6565 51.9435 14.6536 46.5571 15.0088 44.5082C16.8377 33.9577 23.4843 25.493 33.1693 21.3804C38.6695 19.0447 45.0107 18.4454 51.0185 19.6933C55.2934 20.5812 60.227 22.9426 63.6159 25.7229C64.1566 26.1663 64.6409 26.5292 64.6921 26.5292C64.7433 26.5292 65.4569 25.8548 66.2779 25.0302L67.7705 23.5313L66.751 19.0979C66.1903 16.6596 65.6646 14.427 65.5827 14.1367C65.4434 13.6428 65.3051 13.5429 63.4342 12.5838C57.6605 9.62392 52.1369 8.23786 45.653 8.12169C44.013 8.09243 42.4094 8.09359 42.0894 8.12446ZM41.2167 22.9634C30.8728 24.4413 22.3249 31.8082 19.4208 41.748C16.7263 50.97 19.2633 60.9826 26.0066 67.7399C29.8668 71.6081 34.4328 74.0621 39.8349 75.1723C41.3208 75.4777 41.8811 75.515 44.853 75.5058C47.8934 75.4966 48.3609 75.4608 49.981 75.1129C56.095 73.8001 61.4968 70.5323 65.2278 65.8895C68.7369 61.5228 70.6317 56.7669 71.1196 51.1016C71.571 45.8576 70.0799 39.7938 67.2288 35.2798C66.6009 34.2857 64.8306 31.9156 64.7158 31.9156C64.6703 31.9156 62.5548 33.9963 60.0149 36.5394L55.3969 41.1629L55.7495 41.6822C57.588 44.3901 58.3843 47.54 58.0144 50.6411C57.3582 56.1405 53.6176 60.5128 48.2459 62.0587C46.9046 62.4448 44.249 62.5869 42.744 62.3531C40.3987 61.9887 37.9952 60.8775 36.174 59.3157C31.5571 55.3564 30.1694 49.0421 32.7164 43.5846C33.479 41.9508 34.3423 40.7763 35.7655 39.4362C37.7551 37.5631 39.7633 36.5595 42.5258 36.0579C45.7839 35.4665 49.3259 36.2105 52.0064 38.0496C52.3408 38.279 52.6685 38.4667 52.7346 38.4667C52.8006 38.4667 54.9392 36.3797 57.4868 33.8288L62.1189 29.191L60.6859 28.1128C57.3255 25.5844 53.345 23.8371 49.2894 23.1097C47.3891 22.7691 43.1188 22.6916 41.2167 22.9634ZM43.517 39.6256C39.5213 40.2464 36.4509 43.0036 35.4666 46.8554C34.5609 50.4003 35.8608 54.3757 38.6611 56.6232C40.3079 57.9451 42.7986 58.8477 44.7992 58.8477C46.7334 58.8477 49.2899 57.9151 50.9014 56.6218C52.5167 55.3254 53.8557 53.0436 54.2512 50.9137C54.473 49.7192 54.329 47.3313 53.9745 46.3247C53.7233 45.6114 52.9919 44.0361 52.83 43.8598C52.7967 43.8234 51.2668 45.2964 49.4303 47.1331L46.0913 50.4727L44.7803 49.1667L43.4693 47.8607L46.834 44.4909L50.1986 41.121L49.1257 40.5968C47.3592 39.7334 45.2143 39.362 43.517 39.6256Z" fill="#4D4D4D"/>
</svg>
