<svg width="33" height="33" viewBox="0 0 33 33" fill="none" xmlns="http://www.w3.org/2000/svg">
<g clip-path="url(#clip0_574_5)">
<path fill-rule="evenodd" clip-rule="evenodd" d="M15.2109 0.0404379C11.133 0.421098 7.65565 2.02695 4.83054 4.83401C2.28838 7.35999 0.717981 10.5099 0.148924 14.2245C0.00048877 15.1934 0.00048877 17.7422 0.148924 18.7111C0.95317 23.9608 3.85917 28.2185 8.42432 30.8356C10.061 31.7739 12.088 32.4531 14.2441 32.7857C15.2427 32.9398 17.7035 32.94 18.711 32.7862C23.2532 32.0928 27.0203 29.8478 29.7267 26.2211C31.3117 24.0971 32.3529 21.5415 32.7866 18.7111C32.935 17.7422 32.935 15.1934 32.7866 14.2245C32.4341 11.9235 31.7258 9.91014 30.6227 8.07342C28.009 3.72142 23.774 0.899405 18.7432 0.157743C18.0971 0.0624809 15.7939 -0.0140249 15.2109 0.0404379ZM15.2431 2.1021C11.7317 2.46774 8.68774 3.89132 6.2895 6.28955C3.43674 9.14231 1.93408 12.963 2.08355 16.9834C2.22019 20.6575 3.69185 24.0465 6.27036 26.625C8.47305 28.8277 11.1851 30.2045 14.3408 30.722C15.3356 30.8851 17.5999 30.8851 18.5947 30.722C20.1358 30.4693 21.3401 30.0953 22.6552 29.461C24.2431 28.6951 25.4411 27.8534 26.6142 26.6795C28.8272 24.4648 30.2035 21.756 30.7219 18.5948C30.8846 17.6031 30.885 15.3372 30.7228 14.3408C29.7758 8.52518 25.6955 4.00379 20.0449 2.50893C19.0352 2.24177 18.0573 2.11924 16.7578 2.09688C16.0665 2.08502 15.3849 2.08734 15.2431 2.1021ZM23.332 10.4035C23.2434 10.4546 22.0395 11.6371 20.6567 13.031C19.274 14.425 17.1352 16.5806 15.9039 17.8213L13.6652 20.0772L11.6505 18.0693C10.5424 16.9649 9.5429 16.0151 9.42947 15.9584C8.71623 15.6025 7.84115 16.2583 7.95684 17.0619C8.00054 17.3656 8.03915 17.4081 10.5587 19.9279C12.8249 22.1943 13.1444 22.4908 13.3641 22.5305C13.9559 22.6374 13.718 22.8482 19.3228 17.2522C22.1693 14.4103 24.5535 11.9966 24.6212 11.8887C24.8264 11.5612 24.8439 11.2254 24.6731 10.8964C24.5913 10.7389 24.4458 10.5529 24.3498 10.4829C24.1252 10.3194 23.5545 10.2748 23.332 10.4035Z" fill="white"/>
</g>
<defs>
<clipPath id="clip0_574_5">
<rect width="33" height="33" fill="white"/>
</clipPath>
</defs>
</svg>
