<svg width="37" height="48" viewBox="0 0 37 48" fill="none" xmlns="http://www.w3.org/2000/svg">
<path fill-rule="evenodd" clip-rule="evenodd" d="M6.43122 0.288239C6.24829 0.465987 6.13458 1.33815 6.13458 2.56269V4.54889L3.10633 4.61639L0.0780883 4.68389L0.0150515 26.0354C-0.0314228 41.6784 0.0266697 47.4747 0.232096 47.7151C0.464715 47.9875 3.20695 48.0329 16.3636 47.9815L32.2146 47.9197L32.2855 45.7068L32.3565 43.4938L34.634 43.4249L36.9114 43.356L36.9747 25.3117C37.0417 6.22164 37.0548 6.4568 35.954 6.8673C35.5877 7.00373 35.5518 8.57775 35.5518 24.526V42.0349H33.9467H32.3419L32.2781 26.7222L32.2146 11.4095H31.5966H30.9786L30.9153 29.0041L30.8517 46.5987H16.1448H1.43771V26.3018V6.00498H13.7979H26.1581V8.01737C26.1581 9.44632 26.2582 10.1102 26.5032 10.3079C26.7286 10.4897 27.7263 10.5623 29.3816 10.5174C33.1048 10.4165 33.1263 10.2644 29.8681 7.0878L27.2794 4.56379H17.4486H7.6178V3.00249V1.4412H19.2364H30.855V3.45358C30.855 4.88253 30.9551 5.54644 31.2 5.74412C31.4255 5.92596 32.4232 5.9985 34.0785 5.95358C37.8016 5.85269 37.8231 5.70065 34.565 2.52401L31.9763 0H19.3521C9.86291 0 6.6542 0.0715794 6.43122 0.288239ZM32.3382 3.60299V4.56379H33.3772H34.4162L33.4506 3.60299C32.9196 3.07455 32.4519 2.64219 32.4116 2.64219C32.3713 2.64219 32.3382 3.07455 32.3382 3.60299ZM27.6883 8.10672C27.7607 8.95847 27.8153 9.01156 28.6919 9.08193C29.2019 9.12301 29.6189 9.0632 29.6189 8.9491C29.6189 8.69617 28.0638 7.20598 27.8 7.20598C27.6964 7.20598 27.646 7.61143 27.6883 8.10672ZM13.0387 12.3229C10.4663 13.032 8.08872 15.036 6.94862 17.4558C6.38599 18.65 6.36151 18.8189 6.70438 19.1518C7.27814 19.7095 7.74857 19.3858 8.41726 17.9722C9.29656 16.1135 10.1591 15.2478 12.0163 14.3596C13.4563 13.6712 13.9079 13.572 15.58 13.5777C17.7316 13.5852 18.1292 13.7812 17.6817 14.6154C17.409 15.1237 17.2039 15.1772 15.3844 15.2133C13.6308 15.2478 13.2387 15.3415 12.1775 15.9795C10.4181 17.0371 9.47875 18.6166 9.4481 20.569C9.41423 22.7072 8.80957 23.3137 7.71124 22.3109C7.2596 21.8987 7.2072 21.7212 7.43314 21.3696C7.64549 21.0391 7.63239 20.8435 7.37703 20.5447C6.92983 20.0211 5.17592 20.1366 4.80339 20.7143C4.57695 21.0652 4.82761 21.4188 6.37882 22.9361C7.39334 23.9284 8.34013 24.7405 8.48302 24.7405C8.6259 24.7405 9.56181 23.9392 10.5632 22.9597C12.4801 21.0847 12.6511 20.5685 11.4524 20.2762C10.9439 20.152 10.8475 20.0182 10.9721 19.6084C11.2198 18.7925 12.3757 17.5052 13.3097 17.0049C14.1252 16.5682 15.5234 16.5197 17.6256 16.8557C18.0046 16.9163 18.2977 16.6067 18.9165 15.4929C20.0126 13.5191 19.9797 13.1199 18.6802 12.6138C17.2958 12.0751 14.4673 11.9293 13.0387 12.3229ZM20.2808 19.0416C19.2984 20.0024 18.4948 20.9173 18.4948 21.0746C18.4948 21.7222 20.4029 22.1216 21.188 21.6386C21.4194 21.4962 21.4844 21.1899 21.3853 20.7083C21.2788 20.1914 21.3606 19.882 21.6778 19.6031C22.2476 19.1021 22.5264 19.1148 23.0396 19.6658C23.4243 20.0787 23.429 20.2538 23.096 21.8058C22.4896 24.6307 21.4034 26.2725 19.4062 27.382C17.8098 28.269 15.9201 28.6956 14.5079 28.4883C12.967 28.2618 12.7226 28.0704 13.0585 27.3539C13.3183 26.8 13.4263 26.7733 15.0507 26.8624C16.5354 26.9439 16.9549 26.868 18.144 26.3028C19.6465 25.5884 21.0385 24.0247 20.9154 23.1893C20.7972 22.3863 19.8502 22.5758 19.1842 23.5359C18.8651 23.9961 18.162 24.6221 17.6221 24.9267C16.6704 25.464 15.4134 25.5353 13.1838 25.1791C12.8049 25.1186 12.5117 25.4282 11.8929 26.542C11.4527 27.3347 11.0895 28.2174 11.0856 28.5037C11.0747 29.3216 12.9381 29.9065 15.5283 29.8978C18.0837 29.8894 19.7894 29.2238 21.6961 27.4908C22.9422 26.3583 24.4244 23.9037 24.4314 22.9606C24.4363 22.2996 24.6576 22.0287 25.4783 21.6782C25.852 21.5187 26.1581 21.2478 26.1581 21.0765C26.1581 20.7145 22.6824 17.2943 22.3143 17.2943C22.1783 17.2943 21.2632 18.0805 20.2808 19.0416ZM4.81624 33.3077C4.5107 33.6046 4.64839 34.2959 5.04243 34.4429C5.55316 34.6334 26.7395 34.6334 27.2502 34.4429C27.4653 34.3627 27.6413 34.0384 27.6413 33.7223V33.1475H16.3112C10.0795 33.1475 4.90672 33.2196 4.81624 33.3077ZM4.93614 36.9616C4.75271 37.0755 4.64295 37.3716 4.69215 37.62C4.77817 38.0543 5.21968 38.0716 16.1498 38.0716H27.5177V37.4711V36.8706L16.3935 36.8129C10.2752 36.781 5.11931 36.848 4.93614 36.9616ZM4.74183 40.9516C4.66298 41.1509 4.66298 41.4776 4.74183 41.677C4.86717 41.9945 6.29699 42.032 16.2012 41.9772L27.5177 41.9148V41.3143V40.7138L16.2012 40.6513C6.29699 40.5966 4.86717 40.634 4.74183 40.9516Z" fill="white"/>
</svg>
