<svg width="34" height="34" viewBox="0 0 34 34" fill="none" xmlns="http://www.w3.org/2000/svg">
<path fill-rule="evenodd" clip-rule="evenodd" d="M11.1998 0.0683007C10.0761 0.331384 8.96887 1.38312 8.63905 2.50076L8.55571 2.78311H7.43083C5.8586 2.78311 5.65501 2.90076 5.65501 3.80953V4.24468L4.34354 4.24548C3.40592 4.24601 2.92808 4.27391 2.66738 4.34334C1.43579 4.67126 0.437084 5.67045 0.109317 6.90262C-0.0364389 7.45064 -0.0364389 26.5498 0.109317 27.0978C0.437084 28.33 1.43579 29.3292 2.66738 29.6571C3.20372 29.7999 12.1432 29.8035 12.4185 29.6611C12.8795 29.4226 12.8733 28.6772 12.4082 28.411C12.2963 28.347 11.1756 28.3197 7.61391 28.2942L2.96566 28.261L2.6539 28.1073C2.25601 27.9113 1.85433 27.5094 1.65838 27.1113L1.50479 26.7994V17.0002V7.20105L1.65838 6.88913C1.85433 6.49105 2.25601 6.08919 2.6539 5.89314C2.94315 5.75057 3.06221 5.73801 4.30223 5.71914L5.63887 5.69881L5.66862 6.31706C5.69126 6.78762 5.73628 7.01469 5.85687 7.26748C6.0774 7.72967 6.56706 8.1898 7.018 8.35861C7.37811 8.49341 7.49246 8.49653 12.0489 8.49686C17.3188 8.49726 17.0797 8.51938 17.6867 7.97395C18.2355 7.48087 18.4709 6.90734 18.4709 6.06348V5.69649L19.8156 5.71795C21.1248 5.73887 21.1691 5.74412 21.4964 5.91699C21.8983 6.12918 22.2846 6.53928 22.4792 6.96042C22.6164 7.25718 22.6222 7.37524 22.6543 10.4896C22.6785 12.8437 22.7092 13.7496 22.7682 13.8525C22.8471 13.9901 23.2263 14.21 23.3847 14.21C23.5674 14.21 23.9287 13.9796 24.0185 13.8057C24.1619 13.5282 24.1591 7.59494 24.0152 6.98447C23.879 6.40628 23.5875 5.85998 23.1728 5.4057C22.7314 4.92205 22.2744 4.62675 21.6351 4.41203C21.1685 4.25531 21.0522 4.24468 19.8039 4.24468H18.4709V3.87716C18.4709 3.42441 18.3411 3.09748 18.0978 2.93777C17.9418 2.83526 17.7269 2.81114 16.7216 2.78311L15.5303 2.74989L15.4509 2.48415C15.2934 1.95699 14.9935 1.48197 14.5271 1.02131C13.7877 0.290925 13.0508 -0.0103585 12.0297 0.000271107C11.7193 0.00352643 11.3459 0.034153 11.1998 0.0683007ZM11.3433 1.55333C10.5918 1.84072 9.97123 2.65701 9.97123 3.3583C9.97123 3.66025 9.82149 4.00319 9.63145 4.13632C9.50262 4.22661 9.28024 4.24468 8.29634 4.24468H7.11588V5.3774C7.11588 6.57456 7.16608 6.81765 7.44425 6.96653C7.52825 7.01151 9.10805 7.03496 12.0575 7.03496H16.5431L16.7599 6.84123L16.9768 6.64751L16.9988 5.44609L17.0208 4.24468H15.8212H14.6216L14.4182 4.06198C14.2476 3.90872 14.2045 3.80561 14.1505 3.42142C14.0339 2.59211 13.6457 2.00289 12.9968 1.67045C12.5802 1.45693 11.7493 1.39813 11.3433 1.55333ZM4.68405 11.3823C4.57004 11.4319 4.42813 11.5421 4.36864 11.627C4.14725 11.9433 4.28743 12.5157 4.62389 12.669C4.7555 12.729 6.57881 12.7484 12.0942 12.7484H19.3904L19.5924 12.5783C19.9925 12.2414 19.9157 11.6197 19.4464 11.3969C19.2348 11.2964 18.5864 11.287 12.0529 11.2894C6.16857 11.2915 4.85438 11.3081 4.68405 11.3823ZM4.68405 15.6341C4.57004 15.6838 4.42813 15.7939 4.36864 15.8788C4.14725 16.1951 4.28743 16.7675 4.62389 16.9208C4.7555 16.9808 6.57881 17.0002 12.0942 17.0002H19.3904L19.5924 16.8302C19.9925 16.4933 19.9157 15.8716 19.4464 15.6487C19.2348 15.5483 18.5864 15.5389 12.0529 15.5412C6.16857 15.5434 4.85438 15.56 4.68405 15.6341ZM23.5175 17.0623C23.188 17.163 22.8156 17.3925 22.5764 17.6423C22.2494 17.9839 14.3812 30.8761 14.2445 31.2944C14.1048 31.7218 14.1524 32.3365 14.3594 32.7786C14.5755 33.2398 15.0648 33.7002 15.5203 33.8707C15.8906 34.0093 15.9117 34.0096 24.2034 33.992L32.5152 33.9744L32.8004 33.8221C33.5267 33.4341 33.946 32.8125 33.9942 32.0522C34.0106 31.794 33.9908 31.46 33.9503 31.31C33.9098 31.16 32.054 28.0509 29.8263 24.4008C26.7541 19.3666 25.7079 17.7039 25.4935 17.5144C25.1156 17.1805 24.6162 16.9988 24.0961 17.0059C23.8692 17.0091 23.6089 17.0344 23.5175 17.0623ZM23.6585 18.6445C23.4707 18.8221 15.7912 31.3457 15.6606 31.6873C15.5749 31.9115 15.6485 32.1865 15.8476 32.3857L16.0079 32.5461H24.084H32.1602L32.3543 32.3519C32.7563 31.9497 32.9429 32.3048 28.5679 25.1435C26.3786 21.5599 24.5264 18.5906 24.4518 18.5448C24.2148 18.3997 23.8717 18.4428 23.6585 18.6445ZM4.68405 19.886C4.57004 19.9356 4.42813 20.0458 4.36864 20.1307C4.14725 20.447 4.28743 21.0194 4.62389 21.1727C4.75464 21.2323 6.2525 21.2521 10.6417 21.2521C16.988 21.2521 16.7591 21.2653 16.9307 20.8885C17.1217 20.4691 16.9722 20.0505 16.5718 19.8831C16.2475 19.7476 4.99575 19.7502 4.68405 19.886ZM23.7241 21.3448C23.3901 21.53 23.3896 21.5355 23.3871 24.8179L23.3847 27.8854L23.5547 28.0875C23.8915 28.4879 24.5129 28.411 24.7356 27.9414C24.8328 27.7364 24.8456 27.372 24.8456 24.8108C24.8456 21.6999 24.8349 21.591 24.5058 21.3604C24.3207 21.2307 23.9435 21.2231 23.7241 21.3448ZM23.7241 29.8485C23.5128 29.9657 23.39 30.201 23.3871 30.4942C23.3841 30.7952 23.5767 31.0499 23.8842 31.1514C24.0789 31.2157 24.1557 31.2085 24.3646 31.1064C24.7086 30.9382 24.8853 30.5758 24.7797 30.2555C24.6342 29.8144 24.1336 29.6214 23.7241 29.8485Z" fill="white"/>
</svg>
