<svg width="12" height="12" viewBox="0 0 12 12" fill="none" xmlns="http://www.w3.org/2000/svg">
<path d="M1.16652 1.16667L4.94769 5.89225C5.1132 6.09923 5.20331 6.3564 5.20319 6.62142V10.5L6.36986 9.625V6.62083C6.36986 6.35601 6.45997 6.09907 6.62536 5.89225L10.4065 1.16667H1.16652ZM1.16652 0H10.4065C10.6263 2.7417e-05 10.8416 0.0621388 11.0277 0.17918C11.2137 0.296221 11.3629 0.463431 11.458 0.661551C11.5532 0.85967 11.5904 1.08064 11.5655 1.29901C11.5406 1.51738 11.4545 1.72426 11.3171 1.89583L7.53652 6.62083V9.625C7.53652 9.80612 7.49435 9.98475 7.41335 10.1467C7.33236 10.3087 7.21475 10.4497 7.06986 10.5583L5.90319 11.4333C5.72986 11.5633 5.52375 11.6425 5.30796 11.662C5.09217 11.6814 4.87523 11.6404 4.68144 11.5435C4.48765 11.4466 4.32467 11.2977 4.21076 11.1134C4.09686 10.929 4.03652 10.7167 4.03652 10.5V6.62083L0.255938 1.89583C0.118571 1.72426 0.032463 1.51738 0.00753114 1.29901C-0.0174007 1.08064 0.0198584 0.85967 0.115017 0.661551C0.210175 0.463431 0.359362 0.296221 0.545394 0.17918C0.731425 0.0621388 0.946735 2.7417e-05 1.16652 0Z" fill="#19582E"/>
</svg>
