<svg width="22" height="22" viewBox="0 0 22 22" fill="none" xmlns="http://www.w3.org/2000/svg">
<mask id="path-1-outside-1_193_67" maskUnits="userSpaceOnUse" x="0" y="0" width="22" height="22" fill="black">
<rect fill="white" width="22" height="22"/>
<path fill-rule="evenodd" clip-rule="evenodd" d="M10.7429 1.13969C10.6203 1.26231 10.6032 1.73998 10.6032 5.041V8.80262L10.3587 8.85312C9.75049 8.97877 8.97877 9.75049 8.85312 10.3587L8.80262 10.6032H5.041C1.73998 10.6032 1.26231 10.6203 1.13969 10.7429C1.06287 10.8198 1 10.937 1 11.0034C1 11.0697 1.06287 11.1869 1.13969 11.2638C1.2624 11.3864 1.74096 11.4035 5.05211 11.4035C8.38977 11.4035 8.82485 11.4193 8.82485 11.5404C8.82485 12.0971 9.90894 13.1819 10.4654 13.1819C10.5878 13.1819 10.6032 13.6066 10.6032 16.9546C10.6032 20.2658 10.6203 20.7443 10.7429 20.867C10.9203 21.0443 11.0864 21.0443 11.2638 20.867C11.3864 20.7443 11.4035 20.2658 11.4035 16.9546C11.4035 13.6066 11.419 13.1819 11.5413 13.1819C12.0978 13.1819 13.1819 12.0971 13.1819 11.5404C13.1819 11.4193 13.6169 11.4035 16.9546 11.4035C20.2658 11.4035 20.7443 11.3864 20.867 11.2638C21.0443 11.0864 21.0443 10.9203 20.867 10.7429C20.7443 10.6203 20.2658 10.6032 16.9546 10.6032C13.6066 10.6032 13.1819 10.5878 13.1819 10.4654C13.1819 9.90894 12.0971 8.82485 11.5404 8.82485C11.4193 8.82485 11.4035 8.38977 11.4035 5.05211C11.4035 1.74096 11.3864 1.2624 11.2638 1.13969C11.1869 1.06287 11.0697 1 11.0034 1C10.937 1 10.8198 1.06287 10.7429 1.13969ZM9.04714 3.13209C8.14604 3.37253 7.70429 3.54352 7.07413 3.89591C5.77903 4.62024 4.61695 5.78365 3.89261 7.08106C3.58344 7.63485 3.11057 8.95609 3.00601 9.55843L2.94812 9.89187H3.35066C3.71807 9.89187 3.75755 9.87053 3.80414 9.64735C4.06939 8.37679 4.73192 7.05039 5.58083 6.09024C6.4589 5.09711 7.80762 4.28181 9.18052 3.91431L9.93633 3.71202V3.33403C9.93633 2.89379 9.93838 2.89432 9.04714 3.13209ZM12.0704 3.35057V3.7531L12.5594 3.85376C14.4135 4.23549 16.2065 5.51805 17.2445 7.20519C17.6416 7.85057 18.0389 8.86326 18.2026 9.64735C18.2492 9.87053 18.2886 9.89187 18.6561 9.89187H19.0586L19.0007 9.55843C18.8961 8.95609 18.4233 7.63485 18.1141 7.08106C17.3979 5.79823 16.2134 4.61152 14.9385 3.89973C14.3527 3.57269 13.0269 3.10044 12.4261 3.00476L12.0704 2.94812V3.35057ZM9.16647 6.10171C7.83661 6.64865 6.9227 7.47808 6.34535 8.66186C6.14662 9.06937 5.95864 9.51281 5.92761 9.64735C5.87239 9.88707 5.87933 9.89187 6.28382 9.89187C6.59948 9.89187 6.70743 9.85533 6.74353 9.73626C7.13086 8.45815 8.20553 7.3143 9.44292 6.86312L9.93633 6.68315V6.28684C9.93633 5.81753 9.88654 5.80552 9.16647 6.10171ZM12.0704 6.28017V6.68315L12.5638 6.86312C13.8002 7.31394 14.8306 8.41191 15.2599 9.73626C15.2981 9.85426 15.4081 9.89187 15.715 9.89187C16.1099 9.89187 16.1183 9.886 16.0668 9.64735C16.0378 9.51281 15.8518 9.06617 15.6535 8.65466C15.1613 7.63351 14.3828 6.85272 13.3521 6.34624C12.9405 6.14413 12.4839 5.9558 12.3371 5.92796C12.0725 5.87764 12.0704 5.88039 12.0704 6.28017ZM11.4459 9.4575C11.9158 9.58795 12.4265 10.1096 12.5563 10.5917C12.9349 11.9976 11.3375 13.1563 10.1364 12.3469C9.00944 11.5875 9.20924 9.94247 10.4836 9.48809C10.9061 9.33746 11.0024 9.33435 11.4459 9.4575ZM2.95755 12.1815C2.95826 12.2182 3.01943 12.5083 3.09341 12.8262C3.61794 15.0791 5.05283 16.9818 7.08106 18.1141C7.65601 18.4351 8.98481 18.9071 9.58066 19.002L9.93633 19.0586V18.6561V18.2536L9.44728 18.154C6.79466 17.6136 4.5684 15.433 3.88283 12.7038L3.73487 12.1148H3.3455C3.13138 12.1148 2.95683 12.1449 2.95755 12.1815ZM5.92761 12.3594C5.95864 12.4938 6.1483 12.9405 6.34899 13.3521C6.84765 14.3746 7.62836 15.1562 8.65466 15.6605C9.06617 15.8626 9.52286 16.0509 9.66958 16.0787C9.9342 16.1291 9.93633 16.1263 9.93633 15.7265V15.3236L9.44292 15.1436C8.19015 14.6868 7.20395 13.6353 6.74833 12.2704C6.70885 12.1521 6.5977 12.1148 6.28382 12.1148C5.87933 12.1148 5.87239 12.1196 5.92761 12.3594ZM15.2599 12.2704C15.1009 12.7609 14.6464 13.566 14.3176 13.9395C13.8754 14.4418 13.0785 14.9806 12.4871 15.177C12.0725 15.3148 12.0704 15.3175 12.0704 15.718C12.0704 16.1174 12.0724 16.1202 12.3371 16.0691C12.4839 16.0407 12.9405 15.8545 13.3521 15.6551C14.3765 15.1591 15.1563 14.38 15.6577 13.3521C15.8584 12.9405 16.0481 12.4938 16.0791 12.3594C16.1343 12.1196 16.1274 12.1148 15.7229 12.1148C15.4085 12.1148 15.2983 12.1518 15.2599 12.2704ZM18.2026 12.3594C17.599 15.2503 15.3752 17.5362 12.5594 18.1602L12.0704 18.2685V18.6636V19.0586L12.4261 19.0005C12.6217 18.9685 13.1419 18.8276 13.582 18.6873C15.436 18.096 17.1255 16.6964 18.107 14.9385C18.4221 14.3739 18.8952 13.0558 19.0007 12.4483L19.0586 12.1148H18.6561C18.2886 12.1148 18.2492 12.1362 18.2026 12.3594Z"/>
</mask>
<path fill-rule="evenodd" clip-rule="evenodd" d="M10.7429 1.13969C10.6203 1.26231 10.6032 1.73998 10.6032 5.041V8.80262L10.3587 8.85312C9.75049 8.97877 8.97877 9.75049 8.85312 10.3587L8.80262 10.6032H5.041C1.73998 10.6032 1.26231 10.6203 1.13969 10.7429C1.06287 10.8198 1 10.937 1 11.0034C1 11.0697 1.06287 11.1869 1.13969 11.2638C1.2624 11.3864 1.74096 11.4035 5.05211 11.4035C8.38977 11.4035 8.82485 11.4193 8.82485 11.5404C8.82485 12.0971 9.90894 13.1819 10.4654 13.1819C10.5878 13.1819 10.6032 13.6066 10.6032 16.9546C10.6032 20.2658 10.6203 20.7443 10.7429 20.867C10.9203 21.0443 11.0864 21.0443 11.2638 20.867C11.3864 20.7443 11.4035 20.2658 11.4035 16.9546C11.4035 13.6066 11.419 13.1819 11.5413 13.1819C12.0978 13.1819 13.1819 12.0971 13.1819 11.5404C13.1819 11.4193 13.6169 11.4035 16.9546 11.4035C20.2658 11.4035 20.7443 11.3864 20.867 11.2638C21.0443 11.0864 21.0443 10.9203 20.867 10.7429C20.7443 10.6203 20.2658 10.6032 16.9546 10.6032C13.6066 10.6032 13.1819 10.5878 13.1819 10.4654C13.1819 9.90894 12.0971 8.82485 11.5404 8.82485C11.4193 8.82485 11.4035 8.38977 11.4035 5.05211C11.4035 1.74096 11.3864 1.2624 11.2638 1.13969C11.1869 1.06287 11.0697 1 11.0034 1C10.937 1 10.8198 1.06287 10.7429 1.13969ZM9.04714 3.13209C8.14604 3.37253 7.70429 3.54352 7.07413 3.89591C5.77903 4.62024 4.61695 5.78365 3.89261 7.08106C3.58344 7.63485 3.11057 8.95609 3.00601 9.55843L2.94812 9.89187H3.35066C3.71807 9.89187 3.75755 9.87053 3.80414 9.64735C4.06939 8.37679 4.73192 7.05039 5.58083 6.09024C6.4589 5.09711 7.80762 4.28181 9.18052 3.91431L9.93633 3.71202V3.33403C9.93633 2.89379 9.93838 2.89432 9.04714 3.13209ZM12.0704 3.35057V3.7531L12.5594 3.85376C14.4135 4.23549 16.2065 5.51805 17.2445 7.20519C17.6416 7.85057 18.0389 8.86326 18.2026 9.64735C18.2492 9.87053 18.2886 9.89187 18.6561 9.89187H19.0586L19.0007 9.55843C18.8961 8.95609 18.4233 7.63485 18.1141 7.08106C17.3979 5.79823 16.2134 4.61152 14.9385 3.89973C14.3527 3.57269 13.0269 3.10044 12.4261 3.00476L12.0704 2.94812V3.35057ZM9.16647 6.10171C7.83661 6.64865 6.9227 7.47808 6.34535 8.66186C6.14662 9.06937 5.95864 9.51281 5.92761 9.64735C5.87239 9.88707 5.87933 9.89187 6.28382 9.89187C6.59948 9.89187 6.70743 9.85533 6.74353 9.73626C7.13086 8.45815 8.20553 7.3143 9.44292 6.86312L9.93633 6.68315V6.28684C9.93633 5.81753 9.88654 5.80552 9.16647 6.10171ZM12.0704 6.28017V6.68315L12.5638 6.86312C13.8002 7.31394 14.8306 8.41191 15.2599 9.73626C15.2981 9.85426 15.4081 9.89187 15.715 9.89187C16.1099 9.89187 16.1183 9.886 16.0668 9.64735C16.0378 9.51281 15.8518 9.06617 15.6535 8.65466C15.1613 7.63351 14.3828 6.85272 13.3521 6.34624C12.9405 6.14413 12.4839 5.9558 12.3371 5.92796C12.0725 5.87764 12.0704 5.88039 12.0704 6.28017ZM11.4459 9.4575C11.9158 9.58795 12.4265 10.1096 12.5563 10.5917C12.9349 11.9976 11.3375 13.1563 10.1364 12.3469C9.00944 11.5875 9.20924 9.94247 10.4836 9.48809C10.9061 9.33746 11.0024 9.33435 11.4459 9.4575ZM2.95755 12.1815C2.95826 12.2182 3.01943 12.5083 3.09341 12.8262C3.61794 15.0791 5.05283 16.9818 7.08106 18.1141C7.65601 18.4351 8.98481 18.9071 9.58066 19.002L9.93633 19.0586V18.6561V18.2536L9.44728 18.154C6.79466 17.6136 4.5684 15.433 3.88283 12.7038L3.73487 12.1148H3.3455C3.13138 12.1148 2.95683 12.1449 2.95755 12.1815ZM5.92761 12.3594C5.95864 12.4938 6.1483 12.9405 6.34899 13.3521C6.84765 14.3746 7.62836 15.1562 8.65466 15.6605C9.06617 15.8626 9.52286 16.0509 9.66958 16.0787C9.9342 16.1291 9.93633 16.1263 9.93633 15.7265V15.3236L9.44292 15.1436C8.19015 14.6868 7.20395 13.6353 6.74833 12.2704C6.70885 12.1521 6.5977 12.1148 6.28382 12.1148C5.87933 12.1148 5.87239 12.1196 5.92761 12.3594ZM15.2599 12.2704C15.1009 12.7609 14.6464 13.566 14.3176 13.9395C13.8754 14.4418 13.0785 14.9806 12.4871 15.177C12.0725 15.3148 12.0704 15.3175 12.0704 15.718C12.0704 16.1174 12.0724 16.1202 12.3371 16.0691C12.4839 16.0407 12.9405 15.8545 13.3521 15.6551C14.3765 15.1591 15.1563 14.38 15.6577 13.3521C15.8584 12.9405 16.0481 12.4938 16.0791 12.3594C16.1343 12.1196 16.1274 12.1148 15.7229 12.1148C15.4085 12.1148 15.2983 12.1518 15.2599 12.2704ZM18.2026 12.3594C17.599 15.2503 15.3752 17.5362 12.5594 18.1602L12.0704 18.2685V18.6636V19.0586L12.4261 19.0005C12.6217 18.9685 13.1419 18.8276 13.582 18.6873C15.436 18.096 17.1255 16.6964 18.107 14.9385C18.4221 14.3739 18.8952 13.0558 19.0007 12.4483L19.0586 12.1148H18.6561C18.2886 12.1148 18.2492 12.1362 18.2026 12.3594Z" fill="#19582E"/>
<path fill-rule="evenodd" clip-rule="evenodd" d="M10.7429 1.13969C10.6203 1.26231 10.6032 1.73998 10.6032 5.041V8.80262L10.3587 8.85312C9.75049 8.97877 8.97877 9.75049 8.85312 10.3587L8.80262 10.6032H5.041C1.73998 10.6032 1.26231 10.6203 1.13969 10.7429C1.06287 10.8198 1 10.937 1 11.0034C1 11.0697 1.06287 11.1869 1.13969 11.2638C1.2624 11.3864 1.74096 11.4035 5.05211 11.4035C8.38977 11.4035 8.82485 11.4193 8.82485 11.5404C8.82485 12.0971 9.90894 13.1819 10.4654 13.1819C10.5878 13.1819 10.6032 13.6066 10.6032 16.9546C10.6032 20.2658 10.6203 20.7443 10.7429 20.867C10.9203 21.0443 11.0864 21.0443 11.2638 20.867C11.3864 20.7443 11.4035 20.2658 11.4035 16.9546C11.4035 13.6066 11.419 13.1819 11.5413 13.1819C12.0978 13.1819 13.1819 12.0971 13.1819 11.5404C13.1819 11.4193 13.6169 11.4035 16.9546 11.4035C20.2658 11.4035 20.7443 11.3864 20.867 11.2638C21.0443 11.0864 21.0443 10.9203 20.867 10.7429C20.7443 10.6203 20.2658 10.6032 16.9546 10.6032C13.6066 10.6032 13.1819 10.5878 13.1819 10.4654C13.1819 9.90894 12.0971 8.82485 11.5404 8.82485C11.4193 8.82485 11.4035 8.38977 11.4035 5.05211C11.4035 1.74096 11.3864 1.2624 11.2638 1.13969C11.1869 1.06287 11.0697 1 11.0034 1C10.937 1 10.8198 1.06287 10.7429 1.13969ZM9.04714 3.13209C8.14604 3.37253 7.70429 3.54352 7.07413 3.89591C5.77903 4.62024 4.61695 5.78365 3.89261 7.08106C3.58344 7.63485 3.11057 8.95609 3.00601 9.55843L2.94812 9.89187H3.35066C3.71807 9.89187 3.75755 9.87053 3.80414 9.64735C4.06939 8.37679 4.73192 7.05039 5.58083 6.09024C6.4589 5.09711 7.80762 4.28181 9.18052 3.91431L9.93633 3.71202V3.33403C9.93633 2.89379 9.93838 2.89432 9.04714 3.13209ZM12.0704 3.35057V3.7531L12.5594 3.85376C14.4135 4.23549 16.2065 5.51805 17.2445 7.20519C17.6416 7.85057 18.0389 8.86326 18.2026 9.64735C18.2492 9.87053 18.2886 9.89187 18.6561 9.89187H19.0586L19.0007 9.55843C18.8961 8.95609 18.4233 7.63485 18.1141 7.08106C17.3979 5.79823 16.2134 4.61152 14.9385 3.89973C14.3527 3.57269 13.0269 3.10044 12.4261 3.00476L12.0704 2.94812V3.35057ZM9.16647 6.10171C7.83661 6.64865 6.9227 7.47808 6.34535 8.66186C6.14662 9.06937 5.95864 9.51281 5.92761 9.64735C5.87239 9.88707 5.87933 9.89187 6.28382 9.89187C6.59948 9.89187 6.70743 9.85533 6.74353 9.73626C7.13086 8.45815 8.20553 7.3143 9.44292 6.86312L9.93633 6.68315V6.28684C9.93633 5.81753 9.88654 5.80552 9.16647 6.10171ZM12.0704 6.28017V6.68315L12.5638 6.86312C13.8002 7.31394 14.8306 8.41191 15.2599 9.73626C15.2981 9.85426 15.4081 9.89187 15.715 9.89187C16.1099 9.89187 16.1183 9.886 16.0668 9.64735C16.0378 9.51281 15.8518 9.06617 15.6535 8.65466C15.1613 7.63351 14.3828 6.85272 13.3521 6.34624C12.9405 6.14413 12.4839 5.9558 12.3371 5.92796C12.0725 5.87764 12.0704 5.88039 12.0704 6.28017ZM11.4459 9.4575C11.9158 9.58795 12.4265 10.1096 12.5563 10.5917C12.9349 11.9976 11.3375 13.1563 10.1364 12.3469C9.00944 11.5875 9.20924 9.94247 10.4836 9.48809C10.9061 9.33746 11.0024 9.33435 11.4459 9.4575ZM2.95755 12.1815C2.95826 12.2182 3.01943 12.5083 3.09341 12.8262C3.61794 15.0791 5.05283 16.9818 7.08106 18.1141C7.65601 18.4351 8.98481 18.9071 9.58066 19.002L9.93633 19.0586V18.6561V18.2536L9.44728 18.154C6.79466 17.6136 4.5684 15.433 3.88283 12.7038L3.73487 12.1148H3.3455C3.13138 12.1148 2.95683 12.1449 2.95755 12.1815ZM5.92761 12.3594C5.95864 12.4938 6.1483 12.9405 6.34899 13.3521C6.84765 14.3746 7.62836 15.1562 8.65466 15.6605C9.06617 15.8626 9.52286 16.0509 9.66958 16.0787C9.9342 16.1291 9.93633 16.1263 9.93633 15.7265V15.3236L9.44292 15.1436C8.19015 14.6868 7.20395 13.6353 6.74833 12.2704C6.70885 12.1521 6.5977 12.1148 6.28382 12.1148C5.87933 12.1148 5.87239 12.1196 5.92761 12.3594ZM15.2599 12.2704C15.1009 12.7609 14.6464 13.566 14.3176 13.9395C13.8754 14.4418 13.0785 14.9806 12.4871 15.177C12.0725 15.3148 12.0704 15.3175 12.0704 15.718C12.0704 16.1174 12.0724 16.1202 12.3371 16.0691C12.4839 16.0407 12.9405 15.8545 13.3521 15.6551C14.3765 15.1591 15.1563 14.38 15.6577 13.3521C15.8584 12.9405 16.0481 12.4938 16.0791 12.3594C16.1343 12.1196 16.1274 12.1148 15.7229 12.1148C15.4085 12.1148 15.2983 12.1518 15.2599 12.2704ZM18.2026 12.3594C17.599 15.2503 15.3752 17.5362 12.5594 18.1602L12.0704 18.2685V18.6636V19.0586L12.4261 19.0005C12.6217 18.9685 13.1419 18.8276 13.582 18.6873C15.436 18.096 17.1255 16.6964 18.107 14.9385C18.4221 14.3739 18.8952 13.0558 19.0007 12.4483L19.0586 12.1148H18.6561C18.2886 12.1148 18.2492 12.1362 18.2026 12.3594Z" stroke="#19582E" stroke-width="0.6" mask="url(#path-1-outside-1_193_67)"/>
</svg>
