<svg width="15" height="16" viewBox="0 0 15 16" fill="none" xmlns="http://www.w3.org/2000/svg">
<path d="M11.25 8.62378H8.125V11.7488C8.125 11.9145 8.05915 12.0735 7.94194 12.1907C7.82473 12.3079 7.66576 12.3738 7.5 12.3738C7.33424 12.3738 7.17527 12.3079 7.05806 12.1907C6.94085 12.0735 6.875 11.9145 6.875 11.7488V8.62378H3.75C3.58424 8.62378 3.42527 8.55793 3.30806 8.44072C3.19085 8.32351 3.125 8.16454 3.125 7.99878C3.125 7.83302 3.19085 7.67405 3.30806 7.55684C3.42527 7.43963 3.58424 7.37378 3.75 7.37378H6.875V4.24878C6.875 4.08302 6.94085 3.92405 7.05806 3.80684C7.17527 3.68963 7.33424 3.62378 7.5 3.62378C7.66576 3.62378 7.82473 3.68963 7.94194 3.80684C8.05915 3.92405 8.125 4.08302 8.125 4.24878V7.37378H11.25C11.4158 7.37378 11.5747 7.43963 11.6919 7.55684C11.8092 7.67405 11.875 7.83302 11.875 7.99878C11.875 8.16454 11.8092 8.32351 11.6919 8.44072C11.5747 8.55793 11.4158 8.62378 11.25 8.62378Z" fill="white"/>
</svg>
