<svg width="161" height="20" viewBox="0 0 161 20" fill="none" xmlns="http://www.w3.org/2000/svg">
<g clip-path="url(#clip0_1_21)">
<path d="M9.70111 4.46727C8.97898 3.21417 8.11527 2.49912 6.57898 2.49912C5.0427 2.49912 3.57721 3.65311 3.57721 5.30974C3.57721 6.86727 5.18429 7.58939 6.40907 8.1416L7.61261 8.67258C9.96305 9.7062 11.9595 10.8814 11.9595 13.7628C11.9595 16.9345 9.41792 19.3558 6.26748 19.3558C3.36482 19.3558 1.20553 17.4797 0.625 14.6761L2.59314 14.1239C2.85509 15.9717 4.27102 17.4797 6.21792 17.4797C8.16482 17.4797 9.94181 15.9929 9.94181 13.954C9.94181 11.9151 8.28518 11.1221 6.6073 10.3505L5.50288 9.86904C3.39314 8.9062 1.56659 7.8301 1.56659 5.23895C1.55951 2.42125 3.93827 0.623018 6.62854 0.623018C8.64624 0.623018 10.3454 1.65665 11.3082 3.43364L9.70111 4.46727Z" fill="#1F1F1F"/>
<path d="M20.7172 11.7168C20.7172 13.062 20.6676 14.5982 21.5101 15.7522C22.303 16.8566 23.8393 17.4797 25.1561 17.4797C26.4729 17.4797 27.8676 16.8779 28.7101 15.8726C29.6729 14.7186 29.595 13.1398 29.595 11.7239V0.934521H31.6127V12.262C31.6127 14.2301 31.4711 15.7876 30.0269 17.2814C28.7809 18.6266 26.9756 19.3487 25.1561 19.3487C23.4499 19.3487 21.7012 18.6974 20.4765 17.5009C18.8906 15.9858 18.6995 14.3292 18.6995 12.269V0.934521H20.7172V11.7097V11.7168Z" fill="#1F1F1F"/>
<path d="M38.6711 0.16992L52.788 14.9593V0.934522H54.8057V19.8513L40.6818 5.09027V19.0372H38.6641V0.16992H38.6711Z" fill="#1F1F1F"/>
<path d="M64.4269 2.81062H65.1702C67.5207 2.81062 69.8994 3.03008 69.8994 5.9823C69.8994 8.57345 68.0021 9.24601 65.772 9.24601H64.4269V2.81062ZM64.4269 11.115H65.8924C67.4074 11.115 68.9649 10.9239 70.1897 9.91858C71.3154 8.98407 71.9171 7.49734 71.9171 6.03185C71.9171 4.42478 71.2233 2.83893 69.8782 1.90442C68.5614 0.991147 66.9472 0.941589 65.3897 0.941589H62.4163V19.0442H64.434V11.1221L64.4269 11.115Z" fill="#1F1F1F"/>
<path d="M104.434 14.4991L110.296 5.72205e-06L116.151 14.4991L120.908 0.934519H123.089L116.151 19.9717L110.296 5.40177L104.441 19.9717L97.5029 0.934519H99.6905L104.441 14.4991H104.434Z" fill="#1F1F1F"/>
<path d="M127.598 0.934521H136.986V2.80355H129.616V8.177H136.767V10.0531H129.616V17.1611H136.986V19.0372H127.598V0.934521Z" fill="#1F1F1F"/>
<path d="M145.793 2.81062H146.395C148.816 2.81062 151.004 3.10088 151.004 6.07433C151.004 8.88495 148.703 9.31681 146.416 9.31681H145.793V2.81062ZM145.793 11.0938H146.296L151.769 19.0372H154.239L148.477 10.9239C151.266 10.6832 153.015 8.71504 153.015 5.93274C153.015 1.85486 149.822 0.941589 146.388 0.941589H143.769V19.0442H145.786V11.1009L145.793 11.0938Z" fill="#1F1F1F"/>
<path d="M94.7276 10.0106C94.7276 15.292 90.5435 19.2991 85.2338 19.2991C79.9241 19.2991 75.8604 15.1009 75.8604 10.0531C75.8604 5.00531 80.0019 0.729206 85.2338 0.729206C90.4657 0.729206 94.7276 4.73629 94.7276 10.0177V10.0106ZM77.9842 10.0531C77.9842 13.9044 81.071 17.3097 85.1205 17.3097C89.1701 17.3097 92.5896 14.1593 92.5896 10.0531C92.5896 5.9469 89.3542 2.72567 85.1205 2.72567C80.8869 2.72567 77.9842 6.13098 77.9842 10.0531Z" fill="#1F1F1F"/>
<path d="M155.082 3.70266C155.082 3.21416 155.202 2.75398 155.45 2.32213C155.697 1.89027 156.03 1.55044 156.462 1.30266C156.894 1.05487 157.354 0.927435 157.85 0.927435C158.345 0.927435 158.798 1.04779 159.23 1.29558C159.662 1.54336 160.002 1.87611 160.25 2.30797C160.497 2.73982 160.625 3.2 160.625 3.69558C160.625 4.19115 160.505 4.63009 160.271 5.05487C160.03 5.47965 159.697 5.81947 159.273 6.07434C158.841 6.32921 158.374 6.45664 157.864 6.45664C157.354 6.45664 156.887 6.32921 156.455 6.07434C156.023 5.81947 155.69 5.47965 155.45 5.05487C155.209 4.63009 155.089 4.17699 155.089 3.6885L155.082 3.70266ZM155.421 3.70266C155.421 4.14159 155.528 4.54513 155.747 4.91328C155.967 5.28142 156.257 5.57876 156.632 5.79823C157.007 6.0177 157.411 6.1239 157.85 6.1239C158.289 6.1239 158.692 6.0177 159.06 5.79823C159.428 5.57876 159.726 5.2885 159.945 4.91328C160.165 4.53805 160.271 4.13451 160.271 3.69558C160.271 3.25664 160.165 2.86726 159.959 2.49912C159.747 2.13097 159.457 1.83363 159.082 1.60708C158.706 1.38053 158.296 1.26726 157.85 1.26726C157.404 1.26726 157.014 1.37345 156.639 1.59292C156.264 1.81239 155.967 2.10974 155.747 2.48496C155.528 2.86018 155.421 3.26372 155.421 3.69558V3.70266ZM158.834 3.01593C158.834 3.20708 158.784 3.38407 158.692 3.53274C158.6 3.68142 158.459 3.79469 158.289 3.87965L159.159 5.3239H158.713L157.942 4H157.326V5.3239H156.951V2.0885H157.729C158.083 2.0885 158.352 2.16637 158.543 2.31505C158.735 2.4708 158.834 2.70443 158.834 3.01593ZM157.319 3.70266H157.729C157.956 3.70266 158.126 3.64602 158.253 3.53274C158.381 3.41947 158.444 3.24956 158.444 3.03717C158.444 2.61239 158.204 2.40708 157.722 2.40708H157.319V3.70974V3.70266Z" fill="#1F1F1F"/>
<path d="M9.70111 4.46727C8.97898 3.21417 8.11527 2.49912 6.57898 2.49912C5.0427 2.49912 3.57721 3.65311 3.57721 5.30974C3.57721 6.86727 5.18429 7.58939 6.40907 8.1416L7.61261 8.67258C9.96305 9.7062 11.9595 10.8814 11.9595 13.7628C11.9595 16.9345 9.41792 19.3558 6.26748 19.3558C3.36482 19.3558 1.20553 17.4797 0.625 14.6761L2.59314 14.1239C2.85509 15.9717 4.27102 17.4797 6.21792 17.4797C8.16482 17.4797 9.94181 15.9929 9.94181 13.954C9.94181 11.9151 8.28518 11.1221 6.6073 10.3505L5.50288 9.86904C3.39314 8.9062 1.56659 7.8301 1.56659 5.23895C1.55951 2.42125 3.93827 0.623018 6.62854 0.623018C8.64624 0.623018 10.3454 1.65665 11.3082 3.43364L9.70111 4.46727Z" fill="#1F1F1F"/>
<path d="M20.7172 11.7168C20.7172 13.062 20.6676 14.5982 21.5101 15.7522C22.303 16.8566 23.8393 17.4797 25.1561 17.4797C26.4729 17.4797 27.8676 16.8779 28.7101 15.8726C29.6729 14.7186 29.595 13.1398 29.595 11.7239V0.934521H31.6127V12.262C31.6127 14.2301 31.4711 15.7876 30.0269 17.2814C28.7809 18.6266 26.9756 19.3487 25.1561 19.3487C23.4499 19.3487 21.7012 18.6974 20.4765 17.5009C18.8906 15.9858 18.6995 14.3292 18.6995 12.269V0.934521H20.7172V11.7097V11.7168Z" fill="#1F1F1F"/>
<path d="M38.6711 0.16992L52.788 14.9593V0.934522H54.8057V19.8513L40.6818 5.09027V19.0372H38.6641V0.16992H38.6711Z" fill="#1F1F1F"/>
<path d="M64.4269 2.81062H65.1702C67.5207 2.81062 69.8994 3.03008 69.8994 5.9823C69.8994 8.57345 68.0021 9.24601 65.772 9.24601H64.4269V2.81062ZM64.4269 11.115H65.8924C67.4074 11.115 68.9649 10.9239 70.1897 9.91858C71.3154 8.98407 71.9171 7.49734 71.9171 6.03185C71.9171 4.42478 71.2233 2.83893 69.8782 1.90442C68.5614 0.991147 66.9472 0.941589 65.3897 0.941589H62.4163V19.0442H64.434V11.1221L64.4269 11.115Z" fill="#1F1F1F"/>
<path d="M104.434 14.4991L110.296 5.72205e-06L116.151 14.4991L120.908 0.934519H123.089L116.151 19.9717L110.296 5.40177L104.441 19.9717L97.5029 0.934519H99.6905L104.441 14.4991H104.434Z" fill="#1F1F1F"/>
<path d="M127.598 0.934521H136.986V2.80355H129.616V8.177H136.767V10.0531H129.616V17.1611H136.986V19.0372H127.598V0.934521Z" fill="#1F1F1F"/>
<path d="M145.793 2.81062H146.395C148.816 2.81062 151.004 3.10088 151.004 6.07433C151.004 8.88495 148.703 9.31681 146.416 9.31681H145.793V2.81062ZM145.793 11.0938H146.296L151.769 19.0372H154.239L148.477 10.9239C151.266 10.6832 153.015 8.71504 153.015 5.93274C153.015 1.85486 149.822 0.941589 146.388 0.941589H143.769V19.0442H145.786V11.1009L145.793 11.0938Z" fill="#1F1F1F"/>
<path d="M94.7276 10.0106C94.7276 15.292 90.5435 19.2991 85.2338 19.2991C79.9241 19.2991 75.8604 15.1009 75.8604 10.0531C75.8604 5.00531 80.0019 0.729206 85.2338 0.729206C90.4657 0.729206 94.7276 4.73629 94.7276 10.0177V10.0106ZM77.9842 10.0531C77.9842 13.9044 81.071 17.3097 85.1205 17.3097C89.1701 17.3097 92.5896 14.1593 92.5896 10.0531C92.5896 5.9469 89.3542 2.72567 85.1205 2.72567C80.8869 2.72567 77.9842 6.13098 77.9842 10.0531Z" fill="#F08B23"/>
<path d="M155.082 3.70266C155.082 3.21416 155.202 2.75398 155.45 2.32213C155.697 1.89027 156.03 1.55044 156.462 1.30266C156.894 1.05487 157.354 0.927435 157.85 0.927435C158.345 0.927435 158.798 1.04779 159.23 1.29558C159.662 1.54336 160.002 1.87611 160.25 2.30797C160.497 2.73982 160.625 3.2 160.625 3.69558C160.625 4.19115 160.505 4.63009 160.271 5.05487C160.03 5.47965 159.697 5.81947 159.273 6.07434C158.841 6.32921 158.374 6.45664 157.864 6.45664C157.354 6.45664 156.887 6.32921 156.455 6.07434C156.023 5.81947 155.69 5.47965 155.45 5.05487C155.209 4.63009 155.089 4.17699 155.089 3.6885L155.082 3.70266ZM155.421 3.70266C155.421 4.14159 155.528 4.54513 155.747 4.91328C155.967 5.28142 156.257 5.57876 156.632 5.79823C157.007 6.0177 157.411 6.1239 157.85 6.1239C158.289 6.1239 158.692 6.0177 159.06 5.79823C159.428 5.57876 159.726 5.2885 159.945 4.91328C160.165 4.53805 160.271 4.13451 160.271 3.69558C160.271 3.25664 160.165 2.86726 159.959 2.49912C159.747 2.13097 159.457 1.83363 159.082 1.60708C158.706 1.38053 158.296 1.26726 157.85 1.26726C157.404 1.26726 157.014 1.37345 156.639 1.59292C156.264 1.81239 155.967 2.10974 155.747 2.48496C155.528 2.86018 155.421 3.26372 155.421 3.69558V3.70266ZM158.834 3.01593C158.834 3.20708 158.784 3.38407 158.692 3.53274C158.6 3.68142 158.459 3.79469 158.289 3.87965L159.159 5.3239H158.713L157.942 4H157.326V5.3239H156.951V2.0885H157.729C158.083 2.0885 158.352 2.16637 158.543 2.31505C158.735 2.4708 158.834 2.70443 158.834 3.01593ZM157.319 3.70266H157.729C157.956 3.70266 158.126 3.64602 158.253 3.53274C158.381 3.41947 158.444 3.24956 158.444 3.03717C158.444 2.61239 158.204 2.40708 157.722 2.40708H157.319V3.70974V3.70266Z" fill="#1F1F1F"/>
</g>
<defs>
<clipPath id="clip0_1_21">
<rect width="161" height="20" fill="white"/>
</clipPath>
</defs>
</svg>
