<svg width="16" height="16" viewBox="0 0 16 16" fill="none" xmlns="http://www.w3.org/2000/svg">
<path d="M13.2581 8.35396L14.1621 9.15896C14.329 9.29827 14.4405 9.49274 14.4765 9.70718C14.5124 9.92161 14.4704 10.1418 14.3581 10.328L13.2681 12.19C13.1835 12.3325 13.0627 12.4501 12.9181 12.531C12.7717 12.612 12.6073 12.6549 12.4401 12.656C12.3363 12.6566 12.233 12.6411 12.1341 12.61L10.9771 12.228C10.7744 12.358 10.5637 12.4743 10.3451 12.577L10.1021 13.75C10.0571 13.9657 9.93695 14.1585 9.76305 14.294C9.58696 14.4318 9.36864 14.5046 9.14505 14.5H6.88805C6.66447 14.5046 6.44615 14.4318 6.27005 14.294C6.09653 14.1584 5.97676 13.9656 5.93205 13.75L5.68805 12.577C5.47225 12.4729 5.26288 12.356 5.06105 12.227L3.90005 12.61C3.80106 12.6411 3.69782 12.6566 3.59405 12.656C3.42711 12.6548 3.26313 12.6118 3.11705 12.531C2.97249 12.4504 2.85176 12.3331 2.76705 12.191L1.63805 10.328C1.52068 10.1401 1.47583 9.91597 1.51192 9.69745C1.548 9.47894 1.66253 9.28108 1.83405 9.14096L2.73705 7.99996V7.64596L1.83305 6.84096C1.66612 6.70166 1.55457 6.50718 1.51862 6.29275C1.48267 6.07832 1.52468 5.8581 1.63705 5.67196L2.76605 3.80996C2.85062 3.66743 2.97137 3.54979 3.11605 3.46896C3.26213 3.38813 3.42611 3.34516 3.59305 3.34396C3.69589 3.33748 3.7991 3.34692 3.89905 3.37196L5.03705 3.77196C5.24039 3.64196 5.45105 3.52563 5.66905 3.42296L5.91305 2.24996C5.95776 2.03433 6.07753 1.84156 6.25105 1.70596C6.42715 1.56811 6.64547 1.49534 6.86905 1.49996H9.10705C9.33064 1.49534 9.54896 1.56811 9.72505 1.70596C9.90005 1.84296 10.0201 2.03596 10.0631 2.24996L10.3071 3.42296C10.5237 3.5263 10.7327 3.64296 10.9341 3.77296L12.0961 3.39096C12.225 3.34901 12.3613 3.33428 12.4962 3.34771C12.6312 3.36113 12.7619 3.40242 12.8801 3.46896C13.0251 3.55096 13.1451 3.66896 13.2301 3.80896L14.3581 5.67196C14.477 5.85819 14.5241 6.08133 14.4906 6.29975C14.4572 6.51817 14.3453 6.71694 14.1761 6.85896L13.2581 7.64096V8.35396Z" stroke="#4A4A4B"/>
<path d="M10.5 8C10.5 8.66304 10.2366 9.29893 9.76777 9.76777C9.29893 10.2366 8.66304 10.5 8 10.5C7.33696 10.5 6.70107 10.2366 6.23223 9.76777C5.76339 9.29893 5.5 8.66304 5.5 8C5.5 7.33696 5.76339 6.70107 6.23223 6.23223C6.70107 5.76339 7.33696 5.5 8 5.5C8.66304 5.5 9.29893 5.76339 9.76777 6.23223C10.2366 6.70107 10.5 7.33696 10.5 8Z" stroke="#4A4A4B"/>
</svg>
