<svg width="20" height="20" viewBox="0 0 20 20" fill="none" xmlns="http://www.w3.org/2000/svg">
<path d="M10.5001 16.9H10.5C9.00531 16.9 7.6851 16.447 6.53553 15.5406C5.38532 14.6337 4.63951 13.4762 4.29577 12.0652L4.29579 12.0652L4.29523 12.0631C4.25556 11.9144 4.28378 11.7815 4.38498 11.6552C4.48774 11.527 4.62571 11.4515 4.80636 11.4298L4.80685 11.4298C4.97823 11.4084 5.12968 11.4404 5.26565 11.5241C5.39899 11.6061 5.49314 11.7291 5.54699 11.9001C5.84189 13.0042 6.45039 13.9071 7.37005 14.606C8.29038 15.3055 9.33483 15.6556 10.5 15.6556C11.9344 15.6556 13.1548 15.1549 14.1551 14.1551C15.1554 13.1552 15.656 11.9349 15.6556 10.5C15.6551 9.06512 15.1545 7.845 14.1551 6.84562C13.1557 5.84624 11.9354 5.34542 10.5001 5.34444H10.5C9.65328 5.34444 8.8607 5.54096 8.12377 5.93399C7.38801 6.32639 6.76874 6.8661 6.26654 7.55204L6.15007 7.71111H6.34722H7.61111C7.7905 7.71111 7.93632 7.7708 8.05534 7.88982C8.17436 8.00883 8.23375 8.15433 8.23333 8.3331C8.23291 8.51213 8.17319 8.65817 8.05438 8.77781C7.93598 8.89704 7.79071 8.9564 7.61158 8.95555H7.61111H4.72222C4.54283 8.95555 4.39733 8.89587 4.27883 8.77697C4.16016 8.65788 4.10045 8.51218 4.1 8.33321V5.44444C4.1 5.26505 4.15968 5.11955 4.27859 5.00106C4.3977 4.88236 4.54343 4.82264 4.72246 4.82222C4.90111 4.8218 5.04689 4.88137 5.16646 5.00093C5.28601 5.12049 5.34529 5.26595 5.34445 5.44397H5.34444V5.44444V6.41944V6.70539L5.52265 6.48176C6.12712 5.72321 6.86453 5.13697 7.73571 4.72223C8.60715 4.30737 9.52821 4.1 10.5 4.1C11.3897 4.1 12.2218 4.26909 12.9973 4.60663C13.7749 4.94515 14.4505 5.40139 15.0248 5.97524C15.5991 6.54906 16.0556 7.22458 16.3941 8.00272C16.7316 8.77866 16.9005 9.61071 16.9 10.4999C16.8995 11.3892 16.7307 12.2214 16.394 12.9974C16.0565 13.7754 15.6001 14.4509 15.0249 15.0247C14.4495 15.5986 13.7739 16.0551 12.9972 16.3941C12.2228 16.7321 11.3908 16.9009 10.5001 16.9ZM6.47361 15.6191C5.30602 14.6985 4.54769 13.5218 4.19861 12.0889L5.54444 6.29693C6.13916 5.58563 6.85525 5.03063 7.69272 4.63194C8.57768 4.21065 9.51344 4 10.5 4C11.4028 4 12.2485 4.17165 13.0372 4.51494C13.8258 4.85824 14.5119 5.32143 15.0955 5.9045C15.6791 6.48757 16.1425 7.17368 16.4858 7.96283C16.8291 8.75198 17.0005 9.5977 17 10.5C16.9995 11.4023 16.8281 12.248 16.4858 13.0372C16.1434 13.8263 15.68 14.5124 15.0955 15.0955C14.511 15.6786 13.8249 16.142 13.0372 16.4858C12.2495 16.8296 11.4037 17.001 10.5 17C8.98333 17 7.6412 16.5397 6.47361 15.6191ZM11.1222 10.2111V10.2525L11.1515 10.2818L12.9571 12.0874C13.0689 12.1992 13.1264 12.3414 13.1264 12.5222C13.1264 12.703 13.0689 12.8452 12.9571 12.9571C12.8452 13.0689 12.703 13.1264 12.5222 13.1264C12.3414 13.1264 12.1992 13.0689 12.0874 12.9571L10.0652 10.9348C10.002 10.8717 9.95557 10.8018 9.92476 10.7249C9.89338 10.6467 9.87778 10.5659 9.87778 10.4819V7.61111C9.87778 7.43172 9.93746 7.28622 10.0564 7.16772C10.1755 7.04903 10.3212 6.98931 10.5002 6.98889C10.6789 6.98847 10.8247 7.04803 10.9442 7.1676C11.0638 7.28715 11.1231 7.43261 11.1222 7.61064V7.61111V10.2111Z" fill="#19582E" stroke="#19582E" stroke-width="0.2"/>
</svg>
