<svg width="20" height="20" viewBox="0 0 20 20" fill="none" xmlns="http://www.w3.org/2000/svg">
<path d="M5 16H15M6.04125 10.7914C5.77476 11.0763 5.62507 11.4623 5.625 11.8647V14H7.63937C8.01687 14 8.37875 13.84 8.64563 13.5547L14.5831 7.21816C14.8495 6.93323 14.9991 6.54725 14.9991 6.14485C14.9991 5.74245 14.8495 5.35647 14.5831 5.07154L13.9969 4.44488C13.8647 4.30379 13.7077 4.19187 13.5349 4.11553C13.3621 4.0392 13.1769 3.99994 12.9899 4C12.8028 4.00006 12.6177 4.03944 12.4449 4.11589C12.2722 4.19235 12.1153 4.30437 11.9831 4.44555L6.04125 10.7914Z" stroke="#19582E" stroke-width="1.2" stroke-linecap="round" stroke-linejoin="round"/>
</svg>
